<svg width="11" height="18" viewBox="0 0 11 18" fill="none" xmlns="http://www.w3.org/2000/svg">
<path d="M9.33553 18H1.73685C1.50877 18 1.2829 17.9573 1.07218 17.8743C0.861452 17.7913 0.669983 17.6697 0.508702 17.5163C0.347422 17.363 0.219491 17.181 0.132207 16.9806C0.0449224 16.7803 0 16.5655 0 16.3487V5.37415C0.0132182 4.01866 0.558651 2.71677 1.52931 1.72389C2.49997 0.731003 3.82579 0.118762 5.2467 0.00728774C6.17494 -0.0388975 7.10071 0.134986 7.94075 0.51331C8.78078 0.891633 9.50876 1.46255 10.0592 2.17469C10.1735 2.36296 10.2337 2.57654 10.2337 2.79394C10.2337 3.01134 10.1735 3.22489 10.0592 3.41316C9.95816 3.61578 9.79962 3.78757 9.60143 3.90913C9.40325 4.0307 9.17331 4.09723 8.9375 4.10124C8.73343 4.1163 8.52879 4.07967 8.34446 3.99507C8.16013 3.91046 8.00268 3.7809 7.88816 3.6196C7.59975 3.25837 7.22785 2.96502 6.80121 2.7622C6.37457 2.55939 5.90462 2.45252 5.42763 2.44989C5.02024 2.44733 4.61677 2.52557 4.24296 2.67958C3.86915 2.83359 3.5332 3.06 3.25658 3.34437C2.97432 3.62148 2.75482 3.95068 2.61167 4.31164C2.46853 4.67259 2.40477 5.05764 2.42433 5.44295C2.47083 6.19429 2.82022 6.89965 3.39983 7.41228C3.97944 7.92491 4.74463 8.20534 5.53618 8.19519H6.91117C7.00118 8.19476 7.08813 8.22623 7.15504 8.28348C7.22195 8.34074 7.26403 8.41965 7.27303 8.5048C7.27303 8.59604 7.23491 8.68354 7.16705 8.74806C7.09919 8.81258 7.00713 8.84882 6.91117 8.84882H5.53618C4.7835 8.91423 4.02818 8.75389 3.37623 8.39034C2.72428 8.02678 2.20842 7.47826 1.90108 6.82174C1.59375 6.16523 1.51037 5.43368 1.66262 4.72981C1.81487 4.02593 2.19512 3.38507 2.75001 2.89714C3.09152 2.54701 3.50596 2.26829 3.96695 2.07875C4.42794 1.88922 4.92539 1.79302 5.42763 1.79625C6.0139 1.78772 6.59358 1.91477 7.11675 2.16647C7.63992 2.41817 8.09092 2.78699 8.43093 3.24117C8.48708 3.30794 8.55884 3.36135 8.64048 3.39718C8.72213 3.43301 8.81143 3.45027 8.90131 3.44757C9.01195 3.45097 9.12129 3.42415 9.21638 3.37028C9.31147 3.3164 9.38833 3.23771 9.43784 3.14358C9.48734 3.04944 9.50742 2.94379 9.4957 2.83914C9.48398 2.73448 9.44094 2.63521 9.37169 2.55309C8.89224 1.93122 8.2575 1.43263 7.52472 1.1023C6.79194 0.771964 5.98419 0.620289 5.17434 0.660951C3.92638 0.75582 2.76144 1.29294 1.91033 2.16587C1.05922 3.0388 0.584022 4.18386 0.578933 5.37415V16.3487C0.578933 16.6133 0.689512 16.867 0.886302 17.0541C1.08309 17.2412 1.34998 17.3463 1.62828 17.3463H9.22698C9.3678 17.351 9.50815 17.3286 9.63967 17.2805C9.77119 17.2324 9.89117 17.1597 9.99248 17.0666C10.0938 16.9735 10.1743 16.8619 10.2293 16.7386C10.2843 16.6152 10.3126 16.4826 10.3125 16.3487V9.6401C10.3125 9.43024 10.2248 9.22898 10.0687 9.08059C9.91265 8.9322 9.70099 8.84882 9.48027 8.84882H8.61183C8.56584 8.84909 8.52031 8.84011 8.47824 8.82245C8.43617 8.80478 8.39853 8.77883 8.36776 8.74633C8.337 8.71383 8.31383 8.67552 8.29977 8.63388C8.28571 8.59225 8.28107 8.54826 8.28619 8.5048C8.28619 8.42268 8.32049 8.34394 8.38157 8.28587C8.44264 8.22781 8.52546 8.19519 8.61183 8.19519H9.48027C9.88333 8.19519 10.2699 8.3474 10.5549 8.61837C10.8399 8.88935 11 9.25688 11 9.6401V16.3487C10.9917 16.7725 10.8158 17.1777 10.5074 17.4838C10.1989 17.7898 9.78052 17.9741 9.33553 18Z" fill="#023867"/>
</svg>
