<svg width="55" height="56" viewBox="0 0 55 56" fill="none" xmlns="http://www.w3.org/2000/svg">
<path d="M18.0973 1.75824C20.5909 2.27162 22.7819 3.35338 24.6704 5.00353C26.5589 6.65368 27.9157 8.66137 28.7408 11.0266C29.5659 13.3918 29.74 15.8395 29.2633 18.3698C29.2267 18.5531 29.2542 18.7181 29.3458 18.8648C29.4375 19.0115 29.575 19.1031 29.7584 19.1398L29.9234 19.1948C30.0701 19.1948 30.2076 19.1398 30.3359 19.0298C30.4643 18.9198 30.5468 18.7915 30.5835 18.6448C31.1335 15.8945 30.9502 13.1993 30.0334 10.559C29.1167 7.99214 27.6499 5.81027 25.633 4.01344C23.5428 2.17994 21.1226 0.988167 18.3724 0.438118C18.189 0.401447 18.0148 0.438118 17.8498 0.548126C17.6848 0.658138 17.5839 0.804817 17.5473 0.988167C17.5106 1.17152 17.5473 1.33653 17.6573 1.48321C17.7673 1.62989 17.914 1.72157 18.0973 1.75824ZM17.3273 5.7186C19.1241 6.0853 20.6917 6.86454 22.0302 8.05631C23.3686 9.24809 24.3404 10.6874 24.9454 12.3742C25.5505 14.061 25.6697 15.8028 25.303 17.5997C25.2663 17.783 25.2938 17.948 25.3855 18.0947C25.4772 18.2414 25.6147 18.3331 25.798 18.3698H25.963C26.1097 18.3698 26.2472 18.3239 26.3756 18.2322C26.5039 18.1406 26.5864 18.0214 26.6231 17.8747C27.0265 15.8212 26.889 13.841 26.2106 11.9342C25.5322 10.0273 24.4321 8.39551 22.9103 7.03872C21.3885 5.68193 19.6191 4.80185 17.6023 4.39848C17.4189 4.36181 17.2539 4.39848 17.1072 4.50849C16.9606 4.6185 16.8689 4.76518 16.8322 4.94853C16.7955 5.13188 16.823 5.29689 16.9147 5.44357C17.0064 5.59025 17.1439 5.68193 17.3273 5.7186ZM16.5572 9.67896C17.3639 9.82564 18.0973 10.1282 18.7574 10.5865C19.4174 11.0449 19.9767 11.6041 20.435 12.2642C20.8934 12.9243 21.1959 13.6485 21.3426 14.4369C21.4893 15.2253 21.4893 16.0229 21.3426 16.8296C21.306 17.013 21.3426 17.178 21.4526 17.3247C21.5626 17.4713 21.7093 17.563 21.8927 17.5997H22.0027C22.1494 17.5997 22.2869 17.5447 22.4152 17.4347C22.5436 17.3247 22.6261 17.1963 22.6627 17.0496C22.9194 15.7295 22.8278 14.4552 22.3877 13.2268C21.9477 11.9983 21.2418 10.9441 20.27 10.064C19.2983 9.18391 18.1523 8.61553 16.8322 8.35884C16.6489 8.32217 16.4838 8.35884 16.3372 8.46885C16.1905 8.57886 16.0988 8.72554 16.0621 8.90889C16.0255 9.09224 16.053 9.25725 16.1446 9.40393C16.2363 9.55061 16.3738 9.64229 16.5572 9.67896ZM54.2906 43.342C54.1073 43.342 53.9514 43.4062 53.8231 43.5345C53.6947 43.6629 53.6306 43.8187 53.6306 44.0021C53.6672 45.2855 53.3922 46.4956 52.8055 47.6324C52.2188 48.7692 51.412 49.7043 50.3853 50.4377C49.3585 51.0977 48.1667 51.4094 46.8099 51.3728C45.4531 51.3361 43.9497 50.951 42.2995 50.2176L44.5547 46.4223C44.8481 45.9089 44.9214 45.3589 44.7748 44.7722C44.6281 44.1854 44.298 43.7454 43.7847 43.452L35.4239 38.3916C34.9839 38.1349 34.5255 38.0432 34.0488 38.1165C33.5721 38.1899 33.1504 38.3916 32.7837 38.7216L30.1984 41.3068C30.0517 41.4535 29.8684 41.536 29.6484 41.5544C29.4284 41.5727 29.2267 41.5085 29.0433 41.3618C25.9264 39.4917 23.0936 37.264 20.545 34.6787C17.9965 32.0935 15.7871 29.2424 13.9169 26.1255C13.8069 25.9421 13.7703 25.7588 13.8069 25.5754C13.8436 25.3921 13.9353 25.227 14.082 25.0804L16.6672 22.4951C17.0339 22.1284 17.2447 21.6976 17.2998 21.2025C17.3548 20.7075 17.2539 20.2399 16.9972 19.7999L11.9918 11.3841C11.6617 10.8707 11.2034 10.5407 10.6166 10.394C10.0299 10.2473 9.47987 10.339 8.96649 10.669L0.935763 15.5095C0.532393 15.7295 0.257368 16.0595 0.110688 16.4996C-0.0726625 17.0863 -0.0359925 17.8014 0.220698 18.6448C0.220698 18.6814 0.239033 18.6998 0.275703 18.6998C2.32922 24.3103 5.12531 29.4899 8.66397 34.2387C12.2026 38.9875 16.3463 43.1495 21.0951 46.7248C25.8439 50.3002 31.0052 53.1329 36.579 55.2231C37.019 55.3698 37.4591 55.4431 37.8991 55.4431C38.2658 55.4798 38.605 55.4156 38.9167 55.2506C39.2284 55.0856 39.4943 54.8564 39.7143 54.563L41.5845 51.3728C43.308 52.2162 45.1231 52.6562 47.03 52.6929C48.4968 52.7295 49.8535 52.3628 51.1003 51.5928C52.3471 50.7494 53.3189 49.6493 54.0156 48.2925C54.7123 46.9357 55.0424 45.5056 55.0057 44.0021C55.0057 43.8187 54.9323 43.6629 54.7857 43.5345C54.639 43.4062 54.474 43.342 54.2906 43.342ZM38.6142 53.793C38.3208 54.1963 37.7891 54.2513 37.019 53.958C31.5552 51.9045 26.5039 49.1359 21.8652 45.6522C17.2264 42.1686 13.1744 38.0982 9.70906 33.4411C6.24375 28.784 3.50266 23.7236 1.48581 18.2597C1.26579 17.4163 1.3208 16.8846 1.65083 16.6646L9.68156 11.7691C9.86491 11.6591 10.0666 11.6316 10.2866 11.6866C10.5066 11.7416 10.69 11.8792 10.8367 12.0992L15.8421 20.5149C15.9521 20.6983 15.9888 20.8816 15.9521 21.065C15.9155 21.2483 15.8238 21.4134 15.6771 21.56L13.0919 24.1453C12.7252 24.512 12.5143 24.9612 12.4593 25.4929C12.4043 26.0246 12.5235 26.5105 12.8168 26.9505C14.7237 30.1775 17.0064 33.1111 19.665 35.7513C22.3235 38.3916 25.248 40.6834 28.4383 42.627C28.8783 42.8836 29.3458 42.9845 29.8409 42.9295C30.3359 42.8745 30.7668 42.6636 31.1335 42.2969L33.7187 39.6567C33.8654 39.51 34.0396 39.4275 34.2413 39.4092C34.443 39.3908 34.6172 39.4367 34.7638 39.5467L43.0696 44.5521C43.2896 44.6621 43.4271 44.8363 43.4821 45.0747C43.5371 45.313 43.5096 45.5422 43.3996 45.7622L38.6142 53.793Z" fill="#9DA1A8"/>
</svg>
