<svg xmlns="http://www.w3.org/2000/svg" width="512" height="512"><path d="M469.333 304.232V85.333c0-23.531-19.146-42.667-42.667-42.667h-64v-32A10.66 10.66 0 00352 0a10.66 10.66 0 00-10.667 10.667v32h-192v-32A10.66 10.66 0 00138.667 0 10.66 10.66 0 00128 10.667v32H42.667C19.146 42.667 0 61.802 0 85.333v341.333c0 23.531 19.146 42.667 42.667 42.667H304.23C325.772 495.376 358.316 512 394.667 512 459.354 512 512 459.365 512 394.667c0-36.354-16.626-68.897-42.667-90.435zm-448-218.899C21.333 73.573 30.896 64 42.667 64H128v21.333c-11.771 0-21.333 9.573-21.333 21.333 0 11.76 9.563 21.333 21.333 21.333s21.333-9.573 21.333-21.333V64h192v21.333c-11.771 0-21.333 9.573-21.333 21.333 0 11.76 9.563 21.333 21.333 21.333 11.771 0 21.333-9.573 21.333-21.333V64h64C438.438 64 448 73.573 448 85.333v64H21.333v-64zM42.667 448c-11.771 0-21.333-9.573-21.333-21.333v-256H448v119.621c-16.023-8.223-34.121-12.954-53.333-12.954-64.688 0-117.333 52.635-117.333 117.333 0 19.212 4.733 37.31 12.954 53.333H42.667zm352 42.667c-52.938 0-96-43.063-96-96s43.063-96 96-96 96 43.063 96 96-43.063 96-96 96z" data-original="#000000" class="active-path" data-old_color="#000000" fill="#0b3663"/><path d="M437.333 384h-32v-32c0-5.896-4.771-10.667-10.667-10.667S384 346.104 384 352v32h-32c-5.896 0-10.667 4.771-10.667 10.667s4.771 10.667 10.667 10.667h32v32c0 5.896 4.771 10.667 10.667 10.667s10.667-4.771 10.667-10.667v-32h32c5.896 0 10.667-4.771 10.667-10.667S443.229 384 437.333 384z" data-original="#000000" class="active-path" data-old_color="#000000" fill="#0b3663"/></svg>