<svg width="18" height="18" viewBox="0 0 18 18" fill="none" xmlns="http://www.w3.org/2000/svg">
<path d="M16.0788 8.28573L9.18625 15.1782C8.34187 16.0226 7.19664 16.497 6.0025 16.497C4.80836 16.497 3.66314 16.0226 2.81875 15.1782C1.97437 14.3338 1.5 13.1886 1.5 11.9945C1.5 10.8003 1.97437 9.65511 2.81875 8.81073L9.71125 1.91823C10.2742 1.35531 11.0377 1.03906 11.8338 1.03906C12.6298 1.03906 13.3933 1.35531 13.9563 1.91823C14.5192 2.48115 14.8354 3.24464 14.8354 4.04073C14.8354 4.83682 14.5192 5.60031 13.9563 6.16323L7.05625 13.0557C6.77479 13.3372 6.39305 13.4953 5.995 13.4953C5.59696 13.4953 5.21521 13.3372 4.93375 13.0557C4.65229 12.7743 4.49417 12.3925 4.49417 11.9945C4.49417 11.5964 4.65229 11.2147 4.93375 10.9332L11.3013 4.57323" stroke="#6D7280" stroke-width="1.25" stroke-linecap="round" stroke-linejoin="round"/>
</svg>
