<svg width="55" height="56" viewBox="0 0 55 56" fill="none" xmlns="http://www.w3.org/2000/svg">
<path d="M52.14 20.2966H43.56V3.24661C43.56 2.47661 43.285 1.81661 42.735 1.26661C42.185 0.71661 41.525 0.441612 40.755 0.441612H2.805C2.035 0.441612 1.375 0.71661 0.825 1.26661C0.275 1.81661 0 2.47661 0 3.24661V26.4566C0 27.2266 0.275 27.8774 0.825 28.4091C1.375 28.9408 2.035 29.2066 2.805 29.2066H4.18V34.8716C4.18 35.1649 4.30833 35.3758 4.565 35.5041C4.82167 35.6324 5.06 35.6049 5.28 35.4216L11.385 30.8566V46.3116C11.385 47.0816 11.6508 47.7324 12.1825 48.2641C12.7142 48.7958 13.365 49.0616 14.135 49.0616H41.36L49.61 55.2766C49.83 55.4966 50.0775 55.5333 50.3525 55.3866C50.6275 55.2399 50.7467 55.0199 50.71 54.7266V49.0616H52.14C52.91 49.0616 53.57 48.7958 54.12 48.2641C54.67 47.7324 54.945 47.0816 54.945 46.3116V23.0466C54.945 22.2766 54.67 21.6258 54.12 21.0941C53.57 20.5624 52.91 20.2966 52.14 20.2966ZM11.385 23.0466V29.1516L5.555 33.5516V28.5466C5.555 28.3633 5.49083 28.2074 5.3625 28.0791C5.23417 27.9508 5.07833 27.8866 4.895 27.8866H2.805C2.40167 27.8866 2.05333 27.7491 1.76 27.4741C1.46667 27.1991 1.32 26.8599 1.32 26.4566V3.24661C1.32 2.84328 1.46667 2.49495 1.76 2.20161C2.05333 1.90828 2.40167 1.76161 2.805 1.76161H40.755C41.1583 1.76161 41.4975 1.90828 41.7725 2.20161C42.0475 2.49495 42.185 2.84328 42.185 3.24661V20.2966H14.19C13.42 20.2966 12.76 20.5624 12.21 21.0941C11.66 21.6258 11.385 22.2766 11.385 23.0466ZM53.57 46.3116C53.57 46.7149 53.4325 47.0541 53.1575 47.3291C52.8825 47.6041 52.5433 47.7416 52.14 47.7416H50.05C49.8667 47.7416 49.7017 47.8058 49.555 47.9341C49.4083 48.0624 49.335 48.2183 49.335 48.4016V53.4066L42.02 47.8516C41.8733 47.7783 41.7267 47.7416 41.58 47.7416H14.19C13.7867 47.7416 13.4383 47.6041 13.145 47.3291C12.8517 47.0541 12.705 46.7149 12.705 46.3116V23.0466C12.705 22.6433 12.8517 22.3041 13.145 22.0291C13.4383 21.7541 13.7867 21.6166 14.19 21.6166H52.14C52.5433 21.6166 52.8825 21.7541 53.1575 22.0291C53.4325 22.3041 53.57 22.6433 53.57 23.0466V46.3116ZM20.955 31.2416V30.2516H44.935V31.2416H20.955ZM20.955 35.2566V34.2116H44.935V35.2566H20.955ZM20.955 39.2166V38.2266H34.98V39.2166H20.955Z" fill="#9DA1A8"/>
</svg>
