<svg width="15" height="15" viewBox="0 0 15 15" fill="none" xmlns="http://www.w3.org/2000/svg">
<path fill-rule="evenodd" clip-rule="evenodd" d="M9.875 3.9375C9.875 5.24918 8.81168 6.3125 7.5 6.3125C6.18832 6.3125 5.125 5.24918 5.125 3.9375C5.125 2.62582 6.18832 1.5625 7.5 1.5625C8.81168 1.5625 9.875 2.62582 9.875 3.9375ZM7.5 7.5C9.46751 7.5 11.0625 5.90501 11.0625 3.9375C11.0625 1.96999 9.46751 0.375 7.5 0.375C5.53249 0.375 3.9375 1.96999 3.9375 3.9375C3.9375 5.90501 5.53249 7.5 7.5 7.5ZM14.625 13.4375C14.625 14.625 13.4375 14.625 13.4375 14.625H1.5625C1.5625 14.625 0.375 14.625 0.375 13.4375C0.375 12.25 1.5625 8.6875 7.5 8.6875C13.4375 8.6875 14.625 12.25 14.625 13.4375ZM13.4375 13.4334C13.4358 13.1403 13.2549 12.2624 12.4494 11.4569C11.6748 10.6823 10.2183 9.875 7.49999 9.875C4.78167 9.875 3.32517 10.6823 2.55061 11.4569C1.74508 12.2624 1.56419 13.1403 1.5625 13.4334H13.4375Z" fill="#023867"/>
</svg>
