<svg width="37" height="35" viewBox="0 0 37 35" fill="none" xmlns="http://www.w3.org/2000/svg">
<path d="M15.9307 2.24633L15.9307 8.25358C15.9307 9.0683 15.2519 9.72843 14.4146 9.72843C11.4271 9.72843 9.80196 12.7098 9.57673 18.594H14.4146C15.2519 18.594 15.9307 19.2547 15.9307 20.0692L15.9307 32.7532C15.9307 33.5675 15.2519 34.2277 14.4146 34.2277H1.51581C0.678146 34.2277 0 33.567 0 32.7532L0 20.0692C0 17.2484 0.291906 14.6598 0.867345 12.3746C1.45752 10.0314 2.36344 7.98266 3.55916 6.28506C4.78953 4.54043 6.32855 3.17139 8.13384 2.21766C9.95131 1.25815 12.0648 0.771484 14.4151 0.771484C15.2519 0.771484 15.9307 1.43161 15.9307 2.24633ZM35.4838 9.72853C36.3207 9.72853 37 9.06778 37 8.25369V2.24643C37 1.43172 36.3208 0.771587 35.4838 0.771587C33.1344 0.771587 31.0206 1.25836 29.2038 2.21776C27.3982 3.1715 25.8583 4.54053 24.6277 6.28516C23.4324 7.98277 22.5265 10.0316 21.9362 12.3753C21.3611 14.6613 21.0692 17.2498 21.0692 20.0693V32.7533C21.0692 33.5676 21.7482 34.2278 22.5853 34.2278L35.4837 34.2278C36.3206 34.2278 36.9993 33.5671 36.9993 32.7533L36.9993 20.0692C36.9993 19.2548 36.3207 18.594 35.4837 18.594H30.7148C30.9366 12.7099 32.538 9.72853 35.4838 9.72853Z" fill="#6D597A" fill-opacity="0.28"/>
</svg>
