<svg width="72" height="72" viewBox="0 0 72 72" fill="none" xmlns="http://www.w3.org/2000/svg">
<g clip-path="url(#clip0_0_5168)">
<path d="M64.3572 45.8558C66.1666 43.9836 67.2832 41.4379 67.2832 38.6348V23.3809C67.2832 10.7644 57.0188 0.5 44.4023 0.5C31.7858 0.5 21.5215 10.7644 21.5215 23.3809V28.2378C21.429 28.2366 21.3369 28.2344 21.2441 28.2344C9.77459 28.2344 0.443359 37.5656 0.443359 49.0352V69.4199C0.443359 70.5687 1.37468 71.5 2.52344 71.5H69.3633C70.512 71.5 71.4434 70.5687 71.4434 69.4199V56.6621C71.4434 51.8331 68.5233 47.6753 64.3572 45.8558ZM32.9902 31.8778C32.7425 30.9177 32.6152 29.9287 32.6152 28.9277V24.9935C32.6152 24.0696 33.2357 23.2472 34.1238 22.9934L37.6836 21.9764C40.2318 21.2484 42.373 19.4713 43.5587 17.1005C44.2677 15.6821 45.5593 14.6492 47.1019 14.2668C48.5747 13.9017 50.0491 14.1742 51.2522 15.035C54.3437 17.2471 56.1895 20.8336 56.1895 24.6289V28.9277C56.1895 35.4271 50.9018 40.7148 44.4023 40.7148C42.8316 40.7148 41.3165 40.4138 39.8883 39.8196C38.3005 36.6204 35.9138 33.8857 32.9902 31.8778ZM41.5729 44.6251C42.4985 44.7906 43.4429 44.875 44.4023 44.875C45.8412 44.875 47.2357 44.6824 48.5625 44.3234V46.9551C48.5625 48.1038 49.4938 49.0352 50.6426 49.0352H54.2347C53.3268 52.2325 50.3828 54.582 46.8984 54.582H42.0449V49.0352C42.0449 47.5222 41.881 46.0471 41.5729 44.6251ZM25.6816 23.3809C25.6816 13.0583 34.0797 4.66016 44.4023 4.66016C54.7249 4.66016 63.123 13.0583 63.123 23.3809V38.6348C63.123 42.0756 60.3237 44.875 56.8828 44.875H52.7227V42.5271C57.294 39.72 60.3496 34.6742 60.3496 28.9277V24.6289C60.3496 19.4944 57.8537 14.643 53.673 11.6517C51.496 10.0942 48.736 9.57538 46.1008 10.2289C43.3749 10.9048 41.0921 12.7314 39.8378 15.24C39.1725 16.5704 37.9707 17.5677 36.5408 17.9763L32.9812 18.9933C30.3162 19.7547 28.4551 22.2221 28.4551 24.9935V28.9277C28.4551 29.1283 28.4592 29.3285 28.4667 29.5283C27.5661 29.1937 26.6358 28.9207 25.6816 28.7125V23.3809ZM19.1641 56.6621C19.1641 55.5152 20.0972 54.582 21.2441 54.582C22.3911 54.582 23.3242 55.5152 23.3242 56.6621C23.3242 57.8091 22.3911 58.7422 21.2441 58.7422C20.0972 58.7422 19.1641 57.8091 19.1641 56.6621ZM27.4684 56.2387C27.2497 52.9947 24.5426 50.4219 21.2441 50.4219C17.9457 50.4219 15.2385 52.9947 15.0199 56.2387C13.3031 54.5966 12.2305 52.2862 12.2305 49.7285C12.2305 44.7584 16.274 40.7148 21.2441 40.7148C26.2143 40.7148 30.2578 44.7584 30.2578 49.7285C30.2578 52.2862 29.1852 54.5966 27.4684 56.2387ZM12.2305 67.3398V66.3146C12.2305 64.3115 12.909 62.3776 14.1256 60.8087C16.1796 62.133 18.6237 62.9023 21.2441 62.9023C23.8646 62.9023 26.3087 62.133 28.3627 60.8087C29.5793 62.3776 30.2578 64.3115 30.2578 66.3146V67.3398H12.2305ZM34.418 67.3398V66.3146C34.418 63.2826 33.3616 60.3583 31.4683 58.0259C33.3114 55.7594 34.418 52.871 34.418 49.7285C34.418 42.4645 28.5082 36.5547 21.2441 36.5547C13.9801 36.5547 8.07031 42.4645 8.07031 49.7285C8.07031 52.871 9.17691 55.7594 11.02 58.0261C9.12672 60.3584 8.07031 63.2826 8.07031 66.3146V67.3398H4.60352V49.0352C4.60352 39.8595 12.0685 32.3945 21.2441 32.3945C30.4198 32.3945 37.8848 39.8595 37.8848 49.0352V67.3398H34.418ZM67.2832 67.3398H61.043V62.209C61.043 61.0602 60.1116 60.1289 58.9629 60.1289C57.8141 60.1289 56.8828 61.0602 56.8828 62.209V67.3398H42.0449V58.7422H46.8984C52.6879 58.7422 57.5122 54.5454 58.4981 49.0352H59.6562C63.8618 49.0352 67.2832 52.4566 67.2832 56.6621V67.3398Z" fill="#B2916A"/>
</g>
<defs>
<clipPath id="clip0_0_5168">
<rect width="71" height="71" fill="white" transform="translate(0.443359 0.5)"/>
</clipPath>
</defs>
</svg>
