<svg width="70" height="71" viewBox="0 0 70 71" fill="none" xmlns="http://www.w3.org/2000/svg">
<g clip-path="url(#clip0_21_9559)">
<path d="M62.3144 9.77941C62.3144 4.66269 58.1517 0.5 53.035 0.5H16.963C11.8463 0.5 7.68359 4.66269 7.68359 9.77941V43.8403H15.8873V70.5H54.1107V43.8403H62.3144V9.77941ZM34.999 18.9187L25.8744 4.60158H44.1235L34.999 18.9187ZM11.7852 39.7387V9.77941C11.7852 6.9243 14.1079 4.60158 16.963 4.60158H21.0106L32.5671 22.7345L25.921 33.1629H19.9889V17.1572H15.8873V39.7387H11.7852ZM19.9889 37.2645H24.995V66.3984H19.9889V37.2645ZM29.0966 66.3984V37.2645H30.4418C31.8237 37.2645 32.9482 38.3889 32.9482 39.771V44.2506H37.0498V39.771C37.0498 38.8842 36.8743 38.0378 36.556 37.2645H38.6455C40.0274 37.2645 41.1519 38.3889 41.1519 39.771V44.2506H45.2535V39.771C45.2535 38.8842 45.078 38.0378 44.7597 37.2645H50.0092V66.3984H29.0966ZM58.2129 39.7387H54.1107V17.1572H50.0092V33.1629H30.7846L48.9873 4.60158H53.035C55.8901 4.60158 58.2129 6.9243 58.2129 9.77941V39.7387Z" fill="#B2916A"/>
<path d="M41.8047 22.6484H45.9065V26.75H41.8047V22.6484Z" fill="#B2916A"/>
</g>
<defs>
<clipPath id="clip0_21_9559">
<rect width="70" height="70" fill="white" transform="translate(0 0.5)"/>
</clipPath>
</defs>
</svg>
