<svg width="55" height="70" viewBox="0 0 55 70" fill="none" xmlns="http://www.w3.org/2000/svg">
<g clip-path="url(#clip0_21_9540)">
<path d="M11.7969 0V12.3047H-0.507812V70H40.5078V0H11.7969ZM19.6048 28.7109L10.2401 32.4568L6.49422 28.7109H19.6048ZM28.2031 24.6094V16.4062H36.4062V24.6094H28.2031ZM36.4062 12.3047H28.2031V4.10156H36.4062V12.3047ZM15.8984 4.10156H24.1016V12.3047H15.8984V4.10156ZM24.1016 16.4062V24.6094H15.8984V16.4062H24.1016ZM11.7969 16.4062V24.6094H3.59375V16.4062H11.7969ZM3.59375 65.8984V31.6114L9.25209 37.2697L30.6491 28.7109H36.4062V65.8984H3.59375Z" fill="#B2916A"/>
<path d="M25.0865 41.2891C22.9295 41.2891 21.2263 42.2755 19.9991 43.5989C18.7718 42.2755 17.0692 41.2891 14.9117 41.2891C10.9089 41.2891 7.77344 44.6157 7.77344 48.8625C7.77344 53.5452 11.7217 56.6528 16.0364 60.294C18.6821 62.5275 18.6917 62.5654 19.9991 63.6901C21.2995 62.5713 21.3177 62.5264 23.9618 60.2946C28.7592 56.2459 32.2247 53.3203 32.2247 48.8625C32.2247 44.6157 29.0893 41.2891 25.0865 41.2891ZM21.3166 57.1602C20.8862 57.5233 20.4482 57.8924 19.9991 58.2748C19.5494 57.8924 19.112 57.5228 18.6816 57.1597C14.5164 53.6445 11.875 51.4143 11.875 48.8625C11.875 47.137 12.918 45.3906 14.9117 45.3906C17.0249 45.3906 17.9633 47.8964 18.0637 48.1821L19.9991 53.7112L21.9345 48.1821C22.0349 47.8964 22.9733 45.3906 25.0865 45.3906C27.0802 45.3906 28.1232 47.137 28.1232 48.8625C28.1232 51.3064 25.9138 53.2803 21.3166 57.1602Z" fill="#B2916A"/>
</g>
<defs>
<clipPath id="clip0_21_9540">
<rect width="70" height="70" fill="white" transform="translate(-15)"/>
</clipPath>
</defs>
</svg>
