<svg width="70" height="70" viewBox="0 0 70 70" fill="none" xmlns="http://www.w3.org/2000/svg">
<g clip-path="url(#clip0_21_9528)">
<path d="M67.9492 32.091H67.1564C66.879 29.8244 65.7703 27.7306 63.9624 26.1476C61.0027 23.5564 56.8452 23.0804 53.4453 24.7628C53.3954 24.7164 53.3449 24.6707 53.2935 24.6258C50.7484 22.3972 46.1207 21.5322 43.0823 24.0202C41.1718 25.5847 39.8021 28.417 40.8734 32.091H30.8253C31.0384 30.8246 30.9047 29.9761 30.826 29.636C30.2047 26.6251 27.5417 24.4197 24.4635 24.3644C23.037 20.8504 19.6064 18.4365 15.6912 18.4023C15.6626 18.4021 15.6346 18.4019 15.606 18.4019C11.5706 18.4019 8.04275 20.914 6.66367 24.5873C5.05832 24.7283 3.42727 25.1706 2.16139 26.4377C0.666504 27.9339 0 30.1957 0 33.771V54.275C0 62.9458 7.04867 70 15.7127 70H54.2873C62.9513 70 70 62.9458 70 54.275V34.1434C70 33.0099 69.0818 32.091 67.9492 32.091ZM4.10156 54.275V36.1959H13.1306V55.6109H4.18059C4.13027 55.1721 4.10156 54.727 4.10156 54.275ZM17.2322 36.1959H26.3431V55.6109H17.2322V36.1959ZM30.4447 36.1959H39.5555V55.6109H30.4447V36.1959ZM43.6569 36.1959H52.7678V55.6109H43.6569V36.1959ZM56.8694 36.1959H65.8984V54.275C65.8984 54.727 65.8697 55.1722 65.8194 55.6107H56.8694V36.1959ZM45.6795 27.1972C46.9372 26.1673 49.9755 26.8427 50.5928 27.7151C51.5192 29.0246 52.5958 30.2705 54.2608 29.0828C56.3237 27.4269 59.268 27.4914 61.2616 29.2369C62.1689 30.0314 62.7586 31.0122 62.9997 32.091H45.2565C44.263 30.005 44.4071 28.2392 45.6795 27.1972ZM8.21734 28.6322C8.22145 28.6322 8.22664 28.6324 8.22951 28.6322C9.21676 28.6322 10.064 27.9281 10.2453 26.9568C10.7283 24.3711 12.9786 22.5066 15.6066 22.5066C15.6227 22.5066 15.6391 22.5066 15.6553 22.5068C18.2719 22.5297 20.5095 24.4134 20.9754 26.9861C21.2607 28.6746 23.0059 28.8375 24.3674 28.4678C25.5898 28.4751 26.6488 29.3889 26.8313 30.5883C26.8455 30.7411 26.8644 31.2572 26.6202 32.091H4.17238C4.29898 30.7298 4.59607 29.8062 5.06174 29.34C5.55078 28.8505 6.52408 28.6322 8.21734 28.6322ZM54.2873 65.8951H15.7127C11.2736 65.8951 7.41016 63.3881 5.45699 59.7156H64.543C62.59 63.3881 58.7264 65.8951 54.2873 65.8951Z" fill="#B2916A"/>
<path d="M21.1952 14.8404C19.711 14.8737 18.6554 13.1759 19.369 11.857C19.8763 10.8578 20.3702 9.68969 20.4946 9.20776C18.9397 5.89998 18.5065 4.84137 20.7821 1.03047C22.1187 -1.29484 25.6634 0.722306 24.3461 3.06156C23.8939 3.85781 23.4272 4.82988 23.2766 5.27641C23.7342 6.51863 24.6349 7.92192 24.6148 9.20147C24.4845 10.4809 23.3132 14.9914 21.1952 14.8404Z" fill="#B2916A"/>
<path d="M47.9003 14.8404C46.416 14.8737 45.3604 13.1759 46.0741 11.857C46.5813 10.8578 47.0753 9.68969 47.1997 9.20776C45.6448 5.89998 45.2114 4.84137 47.4871 1.03047C48.8237 -1.29484 52.3684 0.722306 51.0511 3.06156C50.5988 3.85781 50.1322 4.82988 49.9815 5.27641C50.4391 6.51863 51.3398 7.92192 51.3197 9.20147C51.1894 10.4809 50.0182 14.9914 47.9003 14.8404Z" fill="#B2916A"/>
<path d="M34.3153 23.0501C32.8874 23.0758 31.8373 21.5138 32.4271 20.1987C33.027 18.7755 33.5847 17.137 33.6321 16.661C33.6144 16.3149 33.27 15.3225 33.0627 14.7257C31.7222 11.7742 32.3609 9.64402 33.8254 6.65083C34.9695 4.22736 38.6662 5.94701 37.5417 8.38716C36.9778 9.59767 36.4409 11.0078 36.3688 11.4616C36.6357 12.9432 37.7837 15.2071 37.7342 16.6774C37.7342 17.9785 36.7764 20.4426 36.2056 21.7957C35.8749 22.5791 35.115 23.0501 34.3153 23.0501Z" fill="#B2916A"/>
</g>
<defs>
<clipPath id="clip0_21_9528">
<rect width="70" height="70" fill="white"/>
</clipPath>
</defs>
</svg>
