<svg width="70" height="70" viewBox="0 0 70 70" fill="none" xmlns="http://www.w3.org/2000/svg">
<path d="M53.128 2.18561C51.6188 2.18561 50.2381 2.74561 49.1825 3.66873C48.1269 2.74561 46.7462 2.18561 45.2369 2.18561C41.9282 2.18561 39.2363 4.87746 39.2363 8.18619C39.2363 9.89053 39.9649 11.5202 41.2352 12.6577C41.786 13.151 46.1316 17.3133 47.7597 18.8754L49.1825 20.2405L50.6053 18.8753C52.2332 17.3131 56.5788 13.1509 57.1298 12.6576C58.4001 11.5202 59.1286 9.89053 59.1286 8.18619C59.1285 4.87746 56.4368 2.18561 53.128 2.18561ZM54.388 9.59563C53.8821 10.0487 50.9928 12.8114 49.1823 14.5457C47.3719 12.8113 44.4826 10.0487 43.9766 9.59563C43.57 9.23168 43.3462 8.73102 43.3462 8.18619C43.3462 7.14371 44.1943 6.29565 45.2368 6.29565C46.2794 6.29565 47.1273 7.14385 47.1273 8.18619H51.2372C51.2372 7.14371 52.0853 6.29565 53.1278 6.29565C54.1704 6.29565 55.0183 7.14385 55.0183 8.18619C55.0186 8.73102 54.7948 9.23154 54.388 9.59563Z" fill="#B2916A"/>
<path d="M41.2523 37.7542V19.3104H29.0733V28.596C28.5962 26.8532 27.6676 25.2787 26.3679 24.0212C23.0085 20.7699 22.0563 18.7584 21.4747 16.1837L20.6022 12.3214L21.1716 12.1927L18.4173 0L6.73633 2.63881L9.49053 14.8313L10.0601 14.7026L10.9326 18.5649C11.5144 21.1395 11.5194 23.3651 9.88359 27.7447C9.19727 29.5829 9.06383 31.5693 9.4975 33.4894L10.4608 37.7539H7.06336V50.1184H11.8953L16.2154 70H54.1102L57.4415 54.6692L63.2623 58.7389V37.7542H41.2523ZM33.1832 23.4203H37.1423V37.7541H33.2481H33.1832V23.4203ZM24.0498 27.576C24.594 28.2688 24.9799 29.0753 25.177 29.9474L26.9405 37.7541H14.6746L13.5066 32.5839C13.3096 31.7116 13.3104 30.8174 13.5039 29.9578L19.8475 33.504L24.0498 27.576ZM17.4657 17.0892C18.1621 20.1719 19.4184 22.4167 21.1829 24.5139L18.6302 28.1148L14.7773 25.961C15.4687 23.3089 15.6381 20.7421 14.9416 17.6594L14.0691 13.797L16.5932 13.2269L17.4657 17.0892ZM15.3139 4.91463L16.257 9.0892L12.5939 9.91662L11.6508 5.74219L15.3139 4.91463ZM11.1733 46.0086V41.8641H39.1265L45.0544 46.0086H11.1733ZM50.7974 65.8901H19.5283L16.1012 50.1185H50.9328L53.7903 52.1164L50.7974 65.8901ZM59.1522 50.8505L46.2993 41.8642H59.1522V50.8505Z" fill="#B2916A"/>
<path d="M31.3631 5.12447L28.457 8.03058L31.3631 10.9367L34.2693 8.03058L31.3631 5.12447Z" fill="#B2916A"/>
<path d="M48.3202 27.6227L45.4141 30.5288L48.3202 33.4349L51.2263 30.5288L48.3202 27.6227Z" fill="#B2916A"/>
<path d="M58.5174 18.8871L55.6113 21.7932L58.5174 24.6993L61.4236 21.7932L58.5174 18.8871Z" fill="#B2916A"/>
</svg>
