<svg width="70" height="71" viewBox="0 0 70 71" fill="none" xmlns="http://www.w3.org/2000/svg">
<g clip-path="url(#clip0_21_9565)">
<path d="M66.5088 49.493L70 31.2275V16.7148L66.3236 0.5H45.3674V7.01492C42.2142 5.37895 38.6637 4.51133 35 4.51133C31.3363 4.51133 27.7858 5.37895 24.6326 7.01492V0.5H3.67637L0 16.7148V31.2275L3.52078 49.647C4.11031 52.7309 7.07738 55.0658 10.2238 55.0658L0 64.5541V70.5H70V64.5541L59.7762 55.0658C63.1004 55.2064 65.9062 52.6454 66.5088 49.493ZM21.659 14.3236C25.1672 10.6418 29.9318 8.61289 35 8.61289C40.0682 8.61289 44.8328 10.6418 48.341 14.3236V28.5123C48.341 29.0981 48.4235 29.6648 48.576 30.2021C47.3115 29.8202 46.147 29.1379 45.1756 28.1931L42.4175 25.5102C38.9787 28.4907 34.9688 30.5184 30.3069 30.5184H21.3242C21.5403 29.8891 21.659 29.2144 21.659 28.5122V14.3236ZM9.93262 50.9711C8.95918 50.9711 8.06641 50.3846 7.66719 49.4959L4.10156 30.8393V17.1742L6.95215 4.60156H20.5311V5.31934L17.5574 11.1832V28.5123C17.5574 29.6525 16.6414 30.5795 15.5148 30.5795C13.6705 30.5795 13.4709 27.8602 13.4709 26.6898V16.76H9.36934V26.6898C9.36934 30.4455 10.7119 32.6576 12.4182 33.7705V48.4596C12.4182 49.8445 11.3025 50.9711 9.93262 50.9711ZM4.10156 66.3984V66.3438L14.2994 56.8801C15.9687 60.7246 18.6676 64.0154 22.0445 66.3984H4.10156ZM16.5348 47.8566V34.6201H30.3069C34.5263 34.6201 38.6604 33.3286 42.1307 30.9533C44.4723 33.222 47.593 34.6281 50.8787 34.6586L53.4651 34.6726V47.8566C53.4652 58.0805 45.1596 66.3984 35 66.3984C24.8404 66.3984 16.5348 58.0805 16.5348 47.8566ZM65.8984 66.3438V66.3984H47.9555C51.3324 64.0154 54.0312 60.7246 55.7006 56.8801L65.8984 66.3438ZM57.5818 48.4596V33.7705C59.2881 32.6576 60.6307 30.4455 60.6307 26.6898V16.76H56.5291V26.6898C56.5291 27.8602 56.3295 30.5795 54.4852 30.5795C53.3586 30.5795 52.4426 29.6525 52.4426 28.5123V11.1832L49.4689 5.31934V4.60156H63.0479L65.8984 17.1742V30.8393L62.3328 49.4959C61.9336 50.3846 61.0408 50.9711 60.0674 50.9711C58.6975 50.9711 57.5818 49.8445 57.5818 48.4596Z" fill="#B2916A"/>
<path d="M34.9707 55.1229C32.904 55.1229 31.2227 53.4266 31.2227 51.3418H27.1211C27.1211 55.6884 30.6424 59.2245 34.9707 59.2245C39.2989 59.2245 42.8202 55.6884 42.8202 51.3418H38.7187C38.7187 53.4266 37.0374 55.1229 34.9707 55.1229Z" fill="#B2916A"/>
<path d="M32.9497 39.2559H28.8481C28.8481 40.3954 27.9315 41.3225 26.8048 41.3225C25.6783 41.3225 24.7617 40.3954 24.7617 39.2559H20.6602C20.6602 42.657 23.4167 45.4241 26.8048 45.4241C30.1931 45.4241 32.9497 42.657 32.9497 39.2559Z" fill="#B2916A"/>
<path d="M45.2387 39.2559C45.2387 40.3954 44.3222 41.3225 43.1956 41.3225C42.0689 41.3225 41.1523 40.3954 41.1523 39.2559H37.0508C37.0508 42.657 39.8073 45.4241 43.1956 45.4241C46.5838 45.4241 49.3403 42.657 49.3403 39.2559H45.2387Z" fill="#B2916A"/>
</g>
<defs>
<clipPath id="clip0_21_9565">
<rect width="70" height="70" fill="white" transform="translate(0 0.5)"/>
</clipPath>
</defs>
</svg>
