<svg width="71" height="71" viewBox="0 0 71 71" fill="none" xmlns="http://www.w3.org/2000/svg">
<g clip-path="url(#clip0_21_9501)">
<path d="M58.3804 37.5814V54.36H52.4692C53.6305 45.2617 54.2204 35.946 54.2204 26.6308V20.8028H0.00195312V26.6308C0.00195312 41.0266 1.4151 55.392 4.20229 69.328L4.53675 71H50.0604C56.9419 71 62.5404 65.4015 62.5404 58.52C62.5404 56.478 62.5404 39.9568 62.5404 37.5814C62.5404 32.9938 66.3343 29.2615 70.9978 29.2615V25.1015C64.0405 25.1015 58.3804 30.7001 58.3804 37.5814ZM41.7405 54.36V33.2814H49.9567C49.7398 40.3738 49.1787 47.4333 48.2765 54.36H41.7405ZM37.5805 58.52H29.2605V33.2828H37.5805V58.52ZM25.1005 33.2828V58.52H16.7806V33.2828H25.1005ZM4.16194 24.9628H50.0604C50.0604 24.9628 50.0678 28.2922 50.0582 29.1228H4.16138C4.15182 28.2923 4.16194 24.9628 4.16194 24.9628ZM4.26788 33.2828H12.6206V58.52H6.53771C5.28832 50.1977 4.52899 41.7575 4.26788 33.2828ZM7.20455 62.68H38.2943C38.8437 64.2296 39.691 65.6393 40.767 66.84H7.95432C7.68961 65.4576 7.44167 64.0703 7.20455 62.68ZM50.0604 66.84C45.4728 66.84 41.7405 63.1077 41.7405 58.5186H58.3804C58.3804 63.1077 54.6481 66.84 50.0604 66.84Z" fill="#B2916A"/>
<path d="M25.2811 0.0361328C22.6032 3.17207 22.7917 7.91473 25.7104 10.8334C26.4287 11.5517 26.8242 12.5067 26.8242 13.5227C26.8242 14.5387 26.4285 15.4935 25.7104 16.212L28.6519 19.1535C31.7568 16.0486 31.7568 10.9969 28.6519 7.89199C27.2579 6.49798 27.1669 4.23397 28.4447 2.73777L25.2811 0.0361328Z" fill="#B2916A"/>
<path d="M11.7921 0C9.07911 3.13885 9.25383 7.89759 12.1901 10.8337C12.9084 11.552 13.304 12.507 13.304 13.523C13.304 14.5389 12.9082 15.4939 12.1901 16.2123L15.1316 19.1538C18.2365 16.0489 18.2365 10.9972 15.1316 7.89233C13.7291 6.48986 13.6448 4.21809 14.9394 2.72035L11.7921 0Z" fill="#B2916A"/>
<path d="M38.83 0.000976562C36.1181 3.13969 36.2934 7.89788 39.2291 10.8334C40.7119 12.3163 40.7119 14.729 39.2291 16.2119L42.1706 19.1534C45.2755 16.0485 45.2755 10.9967 42.1706 7.89191C40.7686 6.48986 40.6839 4.21851 41.9779 2.72077L38.83 0.000976562Z" fill="#B2916A"/>
</g>
<defs>
<clipPath id="clip0_21_9501">
<rect width="71" height="71" fill="white"/>
</clipPath>
</defs>
</svg>
