<svg width="72" height="71" viewBox="0 0 72 71" fill="none" xmlns="http://www.w3.org/2000/svg">
<g clip-path="url(#clip0_0_5199)">
<g clip-path="url(#clip1_0_5199)">
<path d="M58.2235 0H13.6632C6.37375 0 0.443359 5.93039 0.443359 13.2199V49.9029C0.443359 57.1924 6.37375 63.1228 13.6632 63.1228H27.2043L34.4727 70.3906C34.8784 70.7969 35.4109 71 35.9434 71C36.4753 71 37.0078 70.7969 37.414 70.3906L44.6819 63.1228H58.2229C65.5124 63.1228 71.4428 57.1924 71.4428 49.9029V13.2199C71.4434 5.93039 65.513 0 58.2235 0ZM67.2832 49.9029C67.2832 54.8984 63.2189 58.9626 58.2235 58.9626H43.8206C43.2691 58.9626 42.7399 59.182 42.3499 59.572L35.9434 65.978L29.5368 59.572C29.1468 59.1815 28.6181 58.9626 28.0661 58.9626H13.6632C8.66779 58.9626 4.60352 54.8984 4.60352 49.9029V13.2199C4.60352 8.22443 8.66779 4.16016 13.6632 4.16016H58.2235C63.2189 4.16016 67.2832 8.22443 67.2832 13.2199V49.9029Z" fill="#B2916A"/>
<path d="M19.5606 18.7129H12.5496C12.2625 18.7129 12.0295 18.9458 12.0295 19.2329V20.6299C12.0295 20.917 12.2625 21.1499 12.5496 21.1499H14.7716V28.2747C14.7716 28.5624 15.0045 28.7948 15.2916 28.7948H16.8186C17.1057 28.7948 17.3386 28.5624 17.3386 28.2747V21.1499H19.5606C19.8477 21.1499 20.0806 20.917 20.0806 20.6299V19.2329C20.0806 18.9458 19.8477 18.7129 19.5606 18.7129Z" fill="#B2916A"/>
<path d="M22.7425 28.7948C23.0296 28.7948 23.2625 28.5624 23.2625 28.2747V25.095H26.7114V28.2747C26.7114 28.5624 26.9444 28.7948 27.2314 28.7948H28.7574C29.045 28.7948 29.2774 28.5624 29.2774 28.2747V19.2329C29.2774 18.9458 29.045 18.7129 28.7574 18.7129H27.2314C26.9444 18.7129 26.7114 18.9458 26.7114 19.2329V22.6325H23.2625V19.2329C23.2625 18.9458 23.0296 18.7129 22.7425 18.7129H21.2166C20.9289 18.7129 20.6965 18.9458 20.6965 19.2329V28.2747C20.6965 28.5624 20.9289 28.7948 21.2166 28.7948H22.7425Z" fill="#B2916A"/>
<path d="M36.1022 19.0233C36.0193 18.8348 35.8324 18.7129 35.6266 18.7129H33.9966C33.7908 18.7129 33.6039 18.8348 33.5205 19.0233L29.5364 28.0657C29.4654 28.226 29.4806 28.4118 29.577 28.5591C29.6723 28.7065 29.8365 28.7953 30.0125 28.7953H31.6425C31.8483 28.7953 32.0352 28.6734 32.1181 28.4844L32.8873 26.7385H36.7359L37.5051 28.4844C37.588 28.6734 37.7749 28.7953 37.9807 28.7953H39.6107H39.6139C39.901 28.7953 40.1339 28.5624 40.1339 28.2753C40.1339 28.1816 40.109 28.0944 40.0662 28.0185L36.1022 19.0233ZM35.6569 24.2879H33.9663L34.8119 22.3714L35.6569 24.2879Z" fill="#B2916A"/>
<path d="M49.1704 18.7129H47.6434C47.3563 18.7129 47.1233 18.9458 47.1233 19.2329V24.4699L42.8023 18.9139C42.7043 18.7871 42.5526 18.7129 42.3923 18.7129H40.8652C40.5781 18.7129 40.3452 18.9458 40.3452 19.2329V28.2753C40.3452 28.5624 40.5781 28.7953 40.8652 28.7953H42.3923C42.6793 28.7953 42.9123 28.5624 42.9123 28.2753V23.1954L47.1033 28.5938C47.2019 28.7211 47.3536 28.7953 47.5139 28.7953H49.1698C49.4569 28.7953 49.6899 28.5624 49.6899 28.2753V19.2329C49.6904 18.9458 49.4575 18.7129 49.1704 18.7129Z" fill="#B2916A"/>
<path d="M56.3212 23.23L59.6688 19.5845C59.8085 19.4328 59.8448 19.2123 59.762 19.0238C59.6785 18.8348 59.4922 18.7129 59.2858 18.7129H57.3455C57.2014 18.7129 57.0644 18.7725 56.9663 18.877L53.7259 22.3297V19.2329C53.7259 18.9458 53.493 18.7129 53.2059 18.7129H51.6794C51.3923 18.7129 51.1594 18.9458 51.1594 19.2329V28.2747C51.1594 28.5624 51.3923 28.7948 51.6794 28.7948H53.2059C53.493 28.7948 53.7259 28.5624 53.7259 28.2747V25.9439L54.4854 25.1248L57.112 28.5895C57.2106 28.7189 57.3639 28.7948 57.5264 28.7948H59.3373C59.5328 28.7948 59.7121 28.6853 59.801 28.5115C59.8898 28.337 59.8735 28.128 59.7587 27.9698L56.3212 23.23Z" fill="#B2916A"/>
<path d="M30.1814 34.5028C30.0898 34.3382 29.916 34.2363 29.728 34.2363H28.0591C27.8765 34.2363 27.7075 34.3322 27.6132 34.4888L25.5884 37.8602L23.5636 34.4888C23.4693 34.3322 23.3003 34.2363 23.1178 34.2363H21.4488C21.2603 34.2363 21.087 34.3382 20.9949 34.5028C20.9028 34.667 20.9072 34.8685 21.0057 35.0288L24.2922 40.3753V43.7987C24.2922 44.0858 24.5251 44.3187 24.8122 44.3187H26.3647C26.6517 44.3187 26.8847 44.0858 26.8847 43.7987V40.3753L30.1705 35.0288C30.2697 34.8679 30.2735 34.667 30.1814 34.5028Z" fill="#B2916A"/>
<path d="M34.7599 34.0176C33.28 34.0176 32.0173 34.5176 31.007 35.504C29.9936 36.4942 29.4795 37.7422 29.4795 39.2134C29.4795 40.6852 29.9936 41.9333 31.007 42.9229C32.0178 43.9099 33.2805 44.4098 34.7599 44.4098C36.2392 44.4098 37.5013 43.9099 38.5121 42.9229C39.5262 41.9333 40.0402 40.6847 40.0402 39.2134C40.0402 37.7422 39.5262 36.4942 38.5121 35.504C37.5019 34.5176 36.2397 34.0176 34.7599 34.0176ZM34.7599 41.9728C34.0031 41.9728 33.3829 41.7112 32.8634 41.1738C32.3396 40.6316 32.085 39.9908 32.085 39.2134C32.085 38.4367 32.3396 37.7953 32.8634 37.2531C33.3829 36.7157 34.0031 36.4541 34.7599 36.4541C35.5166 36.4541 36.1368 36.7157 36.6558 37.2525C37.1801 37.7958 37.4352 38.4372 37.4352 39.2134C37.4352 39.9902 37.1801 40.6316 36.6558 41.1738C36.1368 41.7112 35.5171 41.9728 34.7599 41.9728Z" fill="#B2916A"/>
<path d="M48.9889 34.2363H47.4624C47.1753 34.2363 46.9424 34.4693 46.9424 34.7563V39.7626C46.9424 40.4592 46.7756 41.0069 46.4467 41.3904C46.1337 41.756 45.7128 41.9337 45.1597 41.9337C44.6072 41.9337 44.1863 41.756 43.8732 41.3904C43.5444 41.0069 43.3775 40.4592 43.3775 39.7626V34.7563C43.3775 34.4693 43.1446 34.2363 42.8575 34.2363H41.3311C41.0434 34.2363 40.811 34.4693 40.811 34.7563V39.8271C40.811 41.2685 41.2243 42.405 42.0401 43.2056C42.8527 44.004 43.9024 44.4092 45.1597 44.4092C46.417 44.4092 47.4667 44.004 48.2798 43.2056C49.0956 42.405 49.5089 41.2685 49.5089 39.8271V34.7563C49.5089 34.4693 49.276 34.2363 48.9889 34.2363Z" fill="#B2916A"/>
</g>
</g>
<defs>
<clipPath id="clip0_0_5199">
<rect width="71" height="71" fill="white" transform="translate(0.443359)"/>
</clipPath>
<clipPath id="clip1_0_5199">
<rect width="71" height="71" fill="white" transform="translate(0.443359)"/>
</clipPath>
</defs>
</svg>
