<svg width="72" height="72" viewBox="0 0 72 72" fill="none" xmlns="http://www.w3.org/2000/svg">
<g clip-path="url(#clip0_0_5129)">
<path d="M57.0001 26.103C55.9941 25.5479 54.729 25.9135 54.174 26.9195L45.2621 43.0723C44.7072 44.0781 45.0727 45.3435 46.0786 45.8984C47.0847 46.4534 48.3498 46.0877 48.9048 45.0819L57.8168 28.9292C58.3716 27.9234 58.0061 26.658 57.0001 26.103Z" fill="#B2916A"/>
<path d="M47.0833 30.2812C48.232 30.2812 49.1633 29.35 49.1633 28.2012C49.1633 27.0524 48.232 26.1211 47.0833 26.1211C45.9345 26.1211 45.0032 27.0524 45.0032 28.2012C45.0032 29.35 45.9345 30.2812 47.0833 30.2812Z" fill="#B2916A"/>
<path d="M55.9954 45.8789C57.1442 45.8789 58.0754 44.9476 58.0754 43.7988C58.0754 42.65 57.1442 41.7188 55.9954 41.7188C54.8466 41.7188 53.9153 42.65 53.9153 43.7988C53.9153 44.9476 54.8466 45.8789 55.9954 45.8789Z" fill="#B2916A"/>
<path d="M19.2333 32.8051H17.9714V30.2812H22.5753C23.7241 30.2812 24.6554 29.3499 24.6554 28.2012C24.6554 27.0524 23.7241 26.1211 22.5753 26.1211H15.8914C14.7426 26.1211 13.8113 27.0524 13.8113 28.2012V34.8852C13.8113 36.0339 14.7426 36.9652 15.8914 36.9652H19.2333C20.5434 36.9652 21.6092 38.0311 21.6092 39.3411C21.6092 40.6511 20.5434 41.7171 19.2333 41.7171H15.8914C14.7426 41.7171 13.8113 42.6484 13.8113 43.7972C13.8113 44.9459 14.7426 45.8773 15.8914 45.8773H19.2333C22.8373 45.8773 25.7694 42.945 25.7694 39.3411C25.7694 35.7372 22.8373 32.8051 19.2333 32.8051Z" fill="#B2916A"/>
<path d="M34.8295 25.8438C31.2255 25.8438 28.2935 28.7758 28.2935 32.3798V39.6208C28.2935 43.2247 31.2255 46.1568 34.8295 46.1568C38.4334 46.1568 41.3655 43.2247 41.3655 39.6208V32.3798C41.3655 28.7757 38.4334 25.8438 34.8295 25.8438ZM37.2053 39.6207C37.2053 40.9307 36.1395 41.9965 34.8295 41.9965C33.5194 41.9965 32.4536 40.9307 32.4536 39.6207V32.3796C32.4536 31.0696 33.5194 30.0038 34.8295 30.0038C36.1395 30.0038 37.2053 31.0696 37.2053 32.3796V39.6207Z" fill="#B2916A"/>
<path d="M71.4434 36C71.4434 32.6837 69.969 29.4914 67.637 27.5059C68.6615 24.6185 68.3422 21.1179 66.6864 18.25C65.0292 15.3799 62.1565 13.3531 59.1429 12.7983C58.5881 9.78741 56.5626 6.91538 53.6945 5.25672C50.824 3.59668 47.3233 3.27704 44.4376 4.30432C42.4518 1.97353 39.2598 0.5 35.9434 0.5C32.6269 0.5 29.4349 1.97353 27.4492 4.30432C24.5634 3.2769 21.0629 3.59668 18.1921 5.25672C15.3241 6.91538 13.2987 9.78755 12.7438 12.7983C9.73035 13.3532 6.85721 15.3802 5.20036 18.25C3.54448 21.1179 3.22526 24.6185 4.24976 27.5059C1.91772 29.4914 0.443359 32.6837 0.443359 36C0.443359 39.3163 1.91772 42.5086 4.24976 44.4941C3.22526 47.3815 3.54448 50.8821 5.20036 53.75C6.85749 56.6201 9.73022 58.6469 12.7438 59.2017C13.2987 62.2126 15.3241 65.0846 18.1922 66.7433C21.0629 68.4033 24.5635 68.723 27.4492 67.6957C29.4349 70.0265 32.6269 71.5 35.9434 71.5C39.2598 71.5 42.4518 70.0265 44.4376 67.6957C47.3235 68.7231 50.8238 68.4033 53.6946 66.7433C56.5626 65.0846 58.5881 62.2125 59.1429 59.2017C62.1564 58.6468 65.0294 56.6198 66.6864 53.75C68.3422 50.8821 68.6615 47.3815 67.637 44.4941C69.969 42.5086 71.4434 39.3163 71.4434 36ZM64.038 41.9385C63.5202 42.2072 63.139 42.6812 62.9876 43.2446C62.8361 43.8081 62.9282 44.4092 63.2415 44.9015C64.3991 46.7206 64.3342 49.5037 63.0837 51.6699C61.8323 53.8372 59.4538 55.2798 57.3008 55.1904C56.7192 55.1661 56.151 55.3851 55.7385 55.7978C55.3259 56.2105 55.1057 56.7772 55.1314 57.3602C55.2262 59.5113 53.7789 61.8888 51.612 63.142C49.445 64.3951 46.6646 64.4602 44.8505 63.3006C44.3584 62.9861 43.7564 62.8932 43.1923 63.0439C42.628 63.1949 42.1532 63.5764 41.8841 64.0949C40.8923 66.0054 38.4493 67.3398 35.9434 67.3398C33.4374 67.3398 30.9944 66.0054 30.0028 64.0949C29.7336 63.5764 29.2588 63.1949 28.6946 63.0439C28.547 63.0043 27.801 62.8117 27.0363 63.3006C25.2221 64.4603 22.4417 64.3951 20.2748 63.142C18.1078 61.8888 16.6605 59.5111 16.7553 57.3602C16.7811 56.7773 16.5608 56.2105 16.1482 55.7978C15.7357 55.3852 15.1691 55.1632 14.5859 55.1904C12.4339 55.2807 10.0544 53.8372 8.80305 51.6699C7.55237 49.5039 7.48761 46.7207 8.64525 44.9015C8.95851 44.4092 9.05058 43.8081 8.89915 43.2446C8.74772 42.6814 8.36652 42.2074 7.84871 41.9385C5.93795 40.9467 4.60352 38.5047 4.60352 36C4.60352 33.4953 5.93795 31.0533 7.84871 30.0615C8.36652 29.7928 8.74772 29.3188 8.89915 28.7554C9.05058 28.1919 8.95851 27.5908 8.64525 27.0985C7.48761 25.2794 7.55251 22.4963 8.80305 20.3301C10.0543 18.1628 12.4315 16.716 14.5859 16.8096C15.1684 16.8368 15.7357 16.6149 16.1482 16.2022C16.5608 15.7895 16.781 15.2228 16.7553 14.6398C16.6605 12.4887 18.1078 10.1112 20.2747 8.85803C22.4417 7.60499 25.2221 7.53982 27.0362 8.69939C27.5285 9.01418 28.1306 9.10709 28.6944 8.95607C29.2587 8.80506 29.7335 8.42357 30.0027 7.90508C30.9944 5.9946 33.4374 4.66016 35.9434 4.66016C38.4493 4.66016 40.8923 5.9946 41.8839 7.90508C42.1531 8.42357 42.6279 8.80506 43.1922 8.95607C43.7564 9.1075 44.3584 9.01404 44.8504 8.69939C46.6646 7.53954 49.445 7.60471 51.6119 8.85803C53.7789 10.1112 55.2262 12.4889 55.1314 14.6398C55.1056 15.2227 55.3259 15.7895 55.7385 16.2022C56.151 16.6148 56.7165 16.8339 57.3008 16.8096C59.4543 16.7189 61.8323 18.1628 63.0837 20.3301C64.3343 22.4961 64.3991 25.2793 63.2415 27.0985C62.9282 27.5908 62.8361 28.1919 62.9876 28.7554C63.139 29.3187 63.5202 29.7926 64.038 30.0615C65.9488 31.0533 67.2832 33.4953 67.2832 36C67.2832 38.5047 65.9488 40.9467 64.038 41.9385Z" fill="#B2916A"/>
</g>
<defs>
<clipPath id="clip0_0_5129">
<rect width="71" height="71" fill="white" transform="translate(0.443359 0.5)"/>
</clipPath>
</defs>
</svg>
