<svg width="70" height="71" viewBox="0 0 70 71" fill="none" xmlns="http://www.w3.org/2000/svg">
<g clip-path="url(#clip0_21_9553)">
<path d="M65.0905 49.9923C64.9323 46.7261 63.5778 43.637 61.2155 41.2749L59.7656 39.8249L56.4562 43.1344C55.863 40.9075 54.6905 38.8511 53.0129 37.1736L51.5629 35.7237L47.4069 39.8799C44.1608 36.5814 39.6725 34.6645 35.0002 34.6645C31.3624 34.6645 27.8627 35.8118 24.9618 37.8632L25.3226 33.446L21.2349 33.1123L20.8405 37.9411L17.8272 34.2122L14.6371 36.7899L18.0015 40.9533L15.3774 41.9311C14.9596 42.0868 14.503 42.0767 14.0925 41.9026C12.5893 41.2657 10.8756 41.2892 9.39038 41.9668C7.90513 42.6443 6.76427 43.9234 6.26007 45.476L4.79355 49.9925H0L2.68777 60.7433C4.1238 66.4877 9.26201 70.4994 15.183 70.4994H54.817C60.7381 70.4994 65.8763 66.4875 67.3122 60.7433L70 49.9925H65.0905V49.9923ZM6.27839 58.1951L5.25305 54.0937H64.7471L63.7217 58.1951H6.27839ZM60.979 49.9923H55.3983L59.6038 45.7867C60.4024 47.0538 60.8722 48.4934 60.979 49.9923ZM52.7965 46.794L49.5982 49.9922H43.0943L51.4002 41.6862C52.3548 43.2048 52.8434 44.9749 52.7965 46.794ZM35.0001 38.7658C38.642 38.7658 42.0226 40.2092 44.5105 42.776L37.2941 49.9925H28.5881L25.5515 43.7673C25.4395 43.5379 25.3137 43.3197 25.1771 43.1116C27.6787 40.3656 31.2439 38.7658 35.0001 38.7658ZM10.1608 46.7425C10.3131 46.2735 10.644 45.9025 11.0926 45.6978C11.5411 45.4934 12.0382 45.4867 12.492 45.6787C13.8722 46.2635 15.4053 46.2974 16.8095 45.7739L19.696 44.6983C20.5387 44.3845 21.471 44.7571 21.8651 45.565L24.0248 49.9922H9.10547L10.1608 46.7425ZM54.817 66.3979H15.183C12.0978 66.3979 9.32585 64.7986 7.75338 62.2965H62.2466C60.6741 64.7985 57.9022 66.3979 54.817 66.3979Z" fill="#B2916A"/>
<path d="M24.7458 10.8921H43.202C44.3328 10.8921 45.2527 11.812 45.2527 12.9428C45.2527 14.0735 44.3328 14.9935 43.202 14.9935H39.1006C35.7084 14.9935 32.9486 17.7533 32.9486 21.1456V30.5626H37.05V21.1456C37.05 20.0148 37.9699 19.0949 39.1006 19.0949H43.202C46.5943 19.0949 49.3541 16.335 49.3541 12.9428C49.3541 9.55055 46.5943 6.79073 43.202 6.79073H24.7458C23.6151 6.79073 22.6951 5.87079 22.6951 4.74004V0.501953H18.5938V4.74004C18.5938 8.13229 21.3536 10.8921 24.7458 10.8921Z" fill="#B2916A"/>
</g>
<defs>
<clipPath id="clip0_21_9553">
<rect width="70" height="70" fill="white" transform="translate(0 0.5)"/>
</clipPath>
</defs>
</svg>
