<svg width="72" height="71" viewBox="0 0 72 71" fill="none" xmlns="http://www.w3.org/2000/svg">
<g clip-path="url(#clip0_0_5212)">
<path d="M50.5039 43.959C50.5039 51.9877 43.972 58.5195 35.9434 58.5195C27.9147 58.5195 21.3828 51.9877 21.3828 43.959C21.3828 42.8102 20.4515 41.8789 19.3027 41.8789C18.154 41.8789 17.2227 42.8102 17.2227 43.959C17.2227 54.2816 25.6208 62.6797 35.9434 62.6797C46.266 62.6797 54.6641 54.2816 54.6641 43.959C54.6641 42.8102 53.7327 41.8789 52.584 41.8789C51.4352 41.8789 50.5039 42.8102 50.5039 43.959Z" fill="#B2916A"/>
<path d="M71.4434 14.8379C71.4434 9.10312 66.7777 4.4375 61.043 4.4375C57.4486 4.4375 54.1622 6.31526 52.2861 9.2845C50.477 8.59031 48.4452 8.39492 46.3438 8.82411V2.08008C46.3438 0.93132 45.4124 0 44.2637 0H27.623C26.4743 0 25.543 0.93132 25.543 2.08008V8.82411C23.4414 8.39492 21.4097 8.59031 19.6006 9.2845C17.7245 6.31526 14.4381 4.4375 10.8438 4.4375C5.10897 4.4375 0.443359 9.10312 0.443359 14.8379C0.443359 17.0981 1.19829 19.2852 2.56102 21.0781C1.19829 22.871 0.443359 25.0581 0.443359 27.3184C0.443359 32.6703 4.56954 36.9927 9.65159 37.6325C9.16305 39.6628 8.90234 41.7809 8.90234 43.959C8.90234 58.8694 21.0329 71 35.9434 71C50.8538 71 62.9844 58.8694 62.9844 43.959C62.9844 41.7864 62.7251 39.6735 62.239 37.6479C67.4122 37.0526 71.4434 32.6485 71.4434 27.3184C71.4434 25.0581 70.6884 22.871 69.3257 21.0781C70.6884 19.2852 71.4434 17.0981 71.4434 14.8379ZM42.1836 4.16016V17.6461C40.1796 17.1709 38.0906 16.918 35.9434 16.918C33.7962 16.918 31.7071 17.1709 29.7031 17.6461V4.16016H42.1836ZM10.9824 33.5586C7.52464 33.5586 4.60352 30.701 4.60352 27.3184C4.60352 25.521 5.37009 23.861 6.76208 22.6441C7.71018 21.8154 7.70921 20.3398 6.76208 19.512C5.37009 18.2953 4.60352 16.6352 4.60352 14.8379C4.60352 11.397 7.40288 8.59766 10.8438 8.59766C13.471 8.59766 15.8258 10.2825 16.7033 12.7903C17.1537 14.0776 18.7033 14.5904 19.8326 13.8259C21.5269 12.6789 23.6136 12.4698 25.543 13.1274V18.998V18.9992C18.9835 21.7426 13.7272 26.999 10.9837 33.5586C10.9833 33.5586 10.9828 33.5586 10.9824 33.5586ZM35.9434 66.8398C23.3269 66.8398 13.0625 56.5755 13.0625 43.959C13.0625 31.3425 23.3269 21.0781 35.9434 21.0781C48.5599 21.0781 58.8242 31.3425 58.8242 43.959C58.8242 56.5755 48.5599 66.8398 35.9434 66.8398ZM65.1246 22.6441C66.5166 23.861 67.2832 25.521 67.2832 27.3184C67.2832 30.7627 64.4615 33.6256 60.9025 33.5571C58.1589 26.9982 52.9028 21.7425 46.3438 18.9993C46.3438 18.9989 46.3438 18.9986 46.3438 18.9982V13.1274C48.27 12.4708 50.3569 12.6772 52.0543 13.8259C53.1836 14.5902 54.733 14.0776 55.1834 12.7903C56.0609 10.2825 58.4157 8.59766 61.043 8.59766C64.4838 8.59766 67.2832 11.397 67.2832 14.8379C67.2832 16.6352 66.5166 18.2953 65.1246 19.5121C64.1764 20.3408 64.1775 21.8164 65.1246 22.6441Z" fill="#B2916A"/>
<path d="M29.7031 48.1191C29.7031 51.56 32.5025 54.3594 35.9434 54.3594C39.3842 54.3594 42.1836 51.56 42.1836 48.1191C42.1836 44.6783 39.3842 41.8789 35.9434 41.8789C32.5025 41.8789 29.7031 44.6783 29.7031 48.1191ZM35.9434 46.0391C37.0903 46.0391 38.0234 46.9722 38.0234 48.1191C38.0234 49.2661 37.0903 50.1992 35.9434 50.1992C34.7964 50.1992 33.8633 49.2661 33.8633 48.1191C33.8633 46.9722 34.7964 46.0391 35.9434 46.0391Z" fill="#B2916A"/>
<path d="M23.4629 37.7188H25.543V39.7988C25.543 40.9476 26.4743 41.8789 27.623 41.8789C28.7718 41.8789 29.7031 40.9476 29.7031 39.7988V37.7188H31.7832C32.932 37.7188 33.8633 36.7874 33.8633 35.6387C33.8633 34.4899 32.932 33.5586 31.7832 33.5586H29.7031V31.4785C29.7031 30.3298 28.7718 29.3984 27.623 29.3984C26.4743 29.3984 25.543 30.3298 25.543 31.4785V33.5586H23.4629C22.3141 33.5586 21.3828 34.4899 21.3828 35.6387C21.3828 36.7874 22.3141 37.7188 23.4629 37.7188Z" fill="#B2916A"/>
<path d="M40.1035 37.7188H42.1836V39.7988C42.1836 40.9476 43.1149 41.8789 44.2637 41.8789C45.4124 41.8789 46.3438 40.9476 46.3438 39.7988V37.7188H48.4238C49.5726 37.7188 50.5039 36.7874 50.5039 35.6387C50.5039 34.4899 49.5726 33.5586 48.4238 33.5586H46.3438V31.4785C46.3438 30.3298 45.4124 29.3984 44.2637 29.3984C43.1149 29.3984 42.1836 30.3298 42.1836 31.4785V33.5586H40.1035C38.9548 33.5586 38.0234 34.4899 38.0234 35.6387C38.0234 36.7874 38.9548 37.7188 40.1035 37.7188Z" fill="#B2916A"/>
</g>
<defs>
<clipPath id="clip0_0_5212">
<rect width="71" height="71" fill="white" transform="translate(0.443359)"/>
</clipPath>
</defs>
</svg>
