<svg width="70" height="70" viewBox="0 0 70 70" fill="none" xmlns="http://www.w3.org/2000/svg">
<path d="M6.21875 22.9798H20.278C21.4088 22.9798 22.3287 23.8998 22.3287 25.0306V27.8796H26.4303V25.0306C26.4303 21.6382 23.6704 18.8783 20.278 18.8783H6.21875C5.08795 18.8783 4.16797 17.9583 4.16797 16.8275C4.16797 15.6967 5.08795 14.7767 6.21875 14.7767H13.229C16.6214 14.7767 19.3813 12.0168 19.3813 8.62437V6.85522H15.2798V8.62437C15.2798 9.75517 14.3598 10.6751 13.229 10.6751H6.21875C2.82635 10.6751 0.0664062 13.4351 0.0664062 16.8275C0.0664062 20.2199 2.82635 22.9798 6.21875 22.9798Z" fill="#B2916A"/>
<path d="M67.391 53.417C67.391 46.9647 62.1417 41.7153 55.6894 41.7153H39.9994V32.1882H9.10643V36.0809H7.51598C3.37162 36.0809 0 39.4525 0 43.5969C0 47.7412 3.37162 51.1128 7.51598 51.1128H9.77184C10.4773 53.3854 11.7294 55.4658 13.463 57.1922C13.5409 57.2698 13.6199 57.3461 13.6994 57.4219H0V61.7532L7.81006 70H62.1901L70 61.7532V57.4219H66.3344C67.0225 56.207 67.391 54.8353 67.391 53.417ZM43.3785 45.8169V50.3732H47.4801V45.8169H51.5817V50.3732H55.6832V45.8169H55.6892C59.8799 45.8169 63.2893 49.2264 63.2893 53.417C63.2893 55.5878 61.5345 57.4219 59.4573 57.4219H35.3888C38.2279 54.7202 39.9994 50.9116 39.9994 46.6981V45.8169H43.3785ZM7.51598 47.0113C5.63322 47.0113 4.10156 45.4796 4.10156 43.5969C4.10156 41.7141 5.63322 40.1825 7.51598 40.1825H9.10643V46.6981C9.10643 46.8026 9.10807 46.907 9.11025 47.0113H7.51598ZM16.3572 54.2859C14.3263 52.2636 13.208 49.5689 13.208 46.6981V36.2898H35.8978V46.6981C35.8978 52.6111 31.07 57.4219 25.1357 57.4219H23.9704C21.0916 57.4219 18.3879 56.3081 16.3572 54.2859ZM9.57469 65.8984L5.43129 61.5234H42.248C40.5671 63.2878 38.9761 64.994 38.1363 65.8984H9.57469ZM60.4253 65.8984H43.754C45.0897 64.4816 46.6326 62.8626 47.9527 61.5234H64.5687L60.4253 65.8984Z" fill="#B2916A"/>
<path d="M39.5362 18.4937L52.8825 31.4386L66.229 18.4937C68.6252 16.1695 69.9996 12.9221 69.9996 9.58385C69.9994 4.29926 65.7002 0 60.4156 0C57.3627 0 54.6388 1.43459 52.8825 3.66529C51.1262 1.43459 48.4024 0 45.3495 0C40.0649 0 35.7656 4.29926 35.7656 9.58385C35.7656 12.9221 37.1399 16.1696 39.5362 18.4937ZM45.3495 4.10156C48.3723 4.10156 50.8318 6.56086 50.8318 9.58385H54.9333C54.9333 6.56086 57.3926 4.10156 60.4156 4.10156C63.4386 4.10156 65.8979 6.56086 65.8979 9.58385C65.8979 11.8191 64.9778 13.9933 63.3734 15.5496L52.8825 25.7247L42.3918 15.5494C40.7874 13.9933 39.8673 11.8189 39.8673 9.58385C39.8672 6.56086 42.3265 4.10156 45.3495 4.10156Z" fill="#B2916A"/>
</svg>
