<svg width="71" height="72" viewBox="0 0 71 72" fill="none" xmlns="http://www.w3.org/2000/svg">
<path d="M65.4408 14.5261L63.3819 13.673C64.2377 12.5047 64.7445 11.0657 64.7445 9.50979V7.56173C64.7445 3.66782 61.5766 0.5 57.6828 0.5C53.789 0.5 50.6212 3.66782 50.6212 7.56173V9.50979C50.6212 11.0747 51.1336 12.5217 51.9985 13.6937L49.9416 14.5258C46.5444 15.9002 44.3493 19.1562 44.3493 22.8209V37.3253H26.2244V34.6348C29.1657 34.2028 31.8809 32.8458 34.024 30.7066C36.6646 28.0706 38.1188 24.564 38.1188 20.8329V12.1429C38.1188 8.82364 35.4185 6.12342 32.0993 6.12342C28.7802 6.12342 26.0799 8.82378 26.0799 12.1429V19.7612C26.0799 21.1982 24.9109 22.3672 23.474 22.3672H21.6061C21.954 21.5496 22.1467 20.6507 22.1467 19.7076V17.9876C22.1467 14.2299 19.0896 11.1727 15.3318 11.1727C11.5741 11.1727 8.51695 14.2299 8.51695 17.9876V19.7076C8.51695 21.0331 8.89871 22.2707 9.55616 23.3185L8.97207 23.5548C6.07716 24.726 4.20647 27.5007 4.20647 30.6237V37.3256H0V71.4598L67.6928 71.5V43.3155L71 41.1615V22.8077C71 19.1534 68.8136 15.9009 65.4408 14.5261ZM54.7766 7.56173C54.7766 5.9591 56.0803 4.65544 57.6829 4.65544C59.2856 4.65544 60.5892 5.95923 60.5892 7.56173V9.50979C60.5892 11.1123 59.2854 12.4161 57.6829 12.4161C56.0804 12.4161 54.7766 11.1123 54.7766 9.50979V7.56173ZM32.0993 10.2787C33.1273 10.2787 33.9635 11.1149 33.9635 12.1429V14.4966H30.2353V12.1429C30.2352 11.1149 31.0714 10.2787 32.0993 10.2787ZM12.6723 17.9875C12.6723 16.521 13.8654 15.328 15.3317 15.328C16.7982 15.328 17.9911 16.5212 17.9911 17.9875V19.7074C17.9911 21.1739 16.7982 22.3669 15.3317 22.3669C13.8652 22.3669 12.6723 21.1738 12.6723 19.7074V17.9875ZM8.36164 30.6236C8.36164 29.2024 9.21294 27.9397 10.5303 27.4068L13.4057 26.2435C14.0168 26.4239 14.6627 26.5223 15.3316 26.5223L23.4737 26.5225C27.2019 26.5225 30.235 23.4894 30.235 19.7612V18.652H33.9632V20.8332C33.9632 23.453 32.9421 25.9151 31.088 27.7659C29.238 29.6128 26.7811 30.6291 24.1677 30.6291C24.1619 30.6291 24.1558 30.6291 24.1501 30.6291L22.0688 30.6255V37.3254H8.36164V30.6236ZM4.15544 41.4809H44.8509L47.5713 43.2995V45.4681H4.15544V41.4809ZM4.15544 67.2991V49.6234H47.5713V67.2991H4.15544ZM66.8446 38.9089L63.5374 41.0629V67.3446H59.7604V45.3303H55.6049V67.3446H51.7264V41.079L48.5045 38.925V22.821C48.5045 20.8581 49.6803 19.1142 51.4998 18.378L56.3022 16.4351C56.7488 16.524 57.2102 16.5715 57.6826 16.5715C58.1856 16.5715 58.676 16.5177 59.1494 16.4173L63.8609 18.3695C65.6732 19.1084 66.8443 20.8504 66.8443 22.8077V38.9089H66.8446Z" fill="#B2916A"/>
</svg>
