<svg width="70" height="71" viewBox="0 0 70 71" fill="none" xmlns="http://www.w3.org/2000/svg">
<g clip-path="url(#clip0_21_9573)">
<path d="M69.9635 37.4608C69.5795 36.7357 68.3981 34.8829 66.1686 33.3737C64.4802 32.2308 61.9838 31.2059 58.8697 31.8265C58.7532 30.8673 58.5024 29.9545 58.1167 29.0903C56.0219 24.3975 50.7203 23.1917 50.0838 23.0175C49.2755 23.1586 46.9113 23.7686 44.7896 25.5519C44.1472 23.3868 42.4127 21.479 39.811 20.0642C40.2271 19.4204 40.5119 18.6676 40.5833 17.787C40.6921 16.4449 40.2534 13.8631 36.0926 11.6497C33.6327 10.3411 30.3155 9.43593 26.9917 9.16632C23.6285 8.89384 20.5877 9.32185 18.1984 10.4048C15.5494 11.6055 13.9251 13.588 13.7421 15.8439C13.6166 17.3938 14.1262 18.8457 15.2012 20.0819C11.3764 21.8449 9.25247 24.3163 9.25247 27.1381C9.25247 28.2043 9.52386 29.4573 10.4195 30.6787C5.50312 32.6788 4.34876 35.7044 4.34876 38.1018C4.34876 39.6178 4.92888 41.0665 6.03768 42.3947C1.12795 45.106 0 48.1194 0 50.3128C0 51.8964 0.540997 54.2232 3.11836 56.3148C4.76856 57.6541 7.10463 58.7753 10.0618 59.6478C13.5647 60.6811 19.8038 61.913 29.6336 61.913C33.1191 61.913 36.3076 61.7218 39.1196 61.3456C40.1365 61.6644 41.5746 61.9631 43.2701 61.9067C45.3077 61.839 47.9298 61.2007 50.0845 58.8682C50.7426 59.5757 51.4819 60.1668 52.302 60.6392C56.7551 63.2045 61.7529 61.0637 62.3702 60.8307C62.9412 60.2414 64.3382 58.5453 65.0847 55.9586C65.6499 53.9998 65.8533 51.3088 64.3007 48.5388C65.177 48.1316 65.9675 47.6111 66.6703 46.9771C70.4859 43.5347 69.9943 38.1199 69.9635 37.4608ZM47.4523 28.675C48.4266 27.89 49.4966 27.4556 50.0842 27.2572C51.0668 27.5889 53.3955 28.5808 54.3695 30.7629C55.1377 32.4839 54.9676 34.684 53.867 37.3229C52.7517 36.6808 51.4606 36.3115 50.084 36.3115C49.7055 36.3115 49.3338 36.3402 48.9699 36.3938C47.7614 35.193 46.5502 34.2185 45.3393 33.472C45.2385 31.4737 45.9341 29.8982 47.4523 28.675ZM17.8326 16.1753C17.8905 15.4608 18.6607 14.7006 19.8928 14.1423C21.2701 13.518 23.0728 13.1912 25.0782 13.1912C25.5934 13.1912 26.1221 13.2128 26.6602 13.2564C29.4463 13.4823 32.182 14.2171 34.1655 15.2724C35.9149 16.203 36.5217 17.1051 36.4934 17.4551C36.4387 18.1299 35.372 18.8565 33.7096 19.3513C31.6005 19.9791 28.6892 20.2014 25.7227 19.9608C23.0363 19.743 20.7595 19.1256 19.3113 18.2221C18.5971 17.7766 17.7608 17.0599 17.8326 16.1753ZM19.5158 22.8431C21.1927 23.46 23.1786 23.8718 25.391 24.0512C26.2964 24.1246 27.1926 24.1609 28.0694 24.1609C30.5862 24.1609 32.9411 23.8619 34.8805 23.2845C35.24 23.1775 35.6448 23.0407 36.068 22.8699C39.0666 23.9802 40.9655 25.7397 40.9655 27.4612C40.9655 30.1585 36.2743 31.8341 28.7225 31.8341C19.8188 31.8341 13.3564 29.8591 13.3564 27.1378C13.3564 25.5193 16.3587 23.8077 19.5158 22.8431ZM9.83601 35.6534C10.8668 34.8562 12.466 34.1796 14.4843 33.6813C14.9743 33.8961 15.5055 34.101 16.0863 34.2928C20.2045 35.6524 25.2311 35.9378 28.7225 35.9378C29.6332 35.9378 30.5081 35.9149 31.348 35.8707C30.7071 36.6506 30.3236 37.2794 30.2041 37.4609C30.0887 38.2733 29.9553 40.4665 30.8719 42.9979C31.1113 43.6589 31.4366 44.365 31.8784 45.0611C30.5489 45.1789 29.1756 45.2396 27.7656 45.2396C22.554 45.2396 17.3878 44.307 13.5917 42.6809C10.4219 41.3231 8.45267 39.5684 8.45267 38.1015C8.45267 37.5097 8.59616 36.6123 9.83601 35.6534ZM35.7223 57.5806C33.8349 57.7325 31.7984 57.8092 29.6336 57.8092C14.602 57.8093 4.10364 54.7267 4.10364 50.3128C4.10364 48.656 6.11456 46.7907 9.53453 45.232C10.2748 45.6646 11.0889 46.0729 11.9758 46.4528C16.3269 48.3165 21.9345 49.343 27.7656 49.343C30.5774 49.343 33.27 49.1237 35.7862 48.6922C35.36 49.4907 35.0526 50.3254 34.8683 51.1959C34.3492 53.6502 34.937 55.8797 35.7223 57.5806ZM34.7718 41.7119C34.3263 40.5426 34.2438 39.3907 34.2367 38.7707C34.8558 37.9387 36.5187 36.0305 38.8951 35.7784C40.7692 35.5797 42.809 36.4213 44.9788 38.2835C43.7393 39.4073 42.8725 40.9334 42.5829 42.6532C41.0669 43.4316 39.7655 44.2827 38.6812 45.2038C36.7493 44.6822 35.4658 43.5336 34.7718 41.7119ZM43.2519 57.8003C42.0022 57.8627 40.8813 57.5853 40.2892 57.4004C39.6894 56.5545 38.3884 54.3832 38.8831 52.0454C39.2731 50.2017 40.7036 48.5221 43.1444 47.0343C43.8459 48.5909 45.0549 49.8703 46.5606 50.6605C46.8324 52.3437 47.2397 53.8451 47.781 55.1615C46.6881 56.8373 45.1991 57.7032 43.2519 57.8003ZM50.0838 47.425C48.1513 47.425 46.5789 45.8527 46.5789 43.92C46.5789 41.9874 48.1511 40.4151 50.0838 40.4151C52.0165 40.4151 53.5887 41.9874 53.5887 43.92C53.5887 45.8527 52.0165 47.425 50.0838 47.425ZM61.1736 54.7067C60.8467 55.9146 60.2365 56.8949 59.8777 57.4008C58.8879 57.7099 56.4209 58.2762 54.3502 57.0833C52.7178 56.1429 51.5625 54.2641 50.9017 51.4839C52.6452 51.2966 54.2134 50.5179 55.403 49.3531C57.0887 49.6151 58.6435 49.6917 60.0635 49.5837C61.3196 51.1413 61.6829 52.8249 61.1736 54.7067ZM63.9213 43.9302C62.5232 45.1915 60.3778 45.7065 57.5316 45.4768C57.6366 44.9741 57.6924 44.4535 57.6924 43.9202C57.6924 42.7054 57.4047 41.5572 56.8963 40.5374C57.6656 39.0162 58.2185 37.5621 58.5544 36.1792C60.4238 35.4659 62.1373 35.6405 63.7696 36.7065C64.8172 37.3906 65.5611 38.274 65.9312 38.7715C65.9193 39.8082 65.6957 42.3295 63.9213 43.9302Z" fill="#B2916A"/>
</g>
<defs>
<clipPath id="clip0_21_9573">
<rect width="70" height="70" fill="white" transform="translate(0 0.5)"/>
</clipPath>
</defs>
</svg>
