<svg width="72" height="71" viewBox="0 0 72 71" fill="none" xmlns="http://www.w3.org/2000/svg">
<path d="M56.684 10.4004C56.684 4.66562 52.0183 0 46.2836 0C45.5524 0 30.3728 0 29.6429 0C26.2021 0 23.4027 2.79937 23.4027 6.24023V8.67809C20.9816 9.53674 19.2426 11.8488 19.2426 14.5605V18.227C18.8809 18.942 18.5395 19.5986 18.2076 20.2362C16.9079 22.7346 15.8811 24.708 15.3925 26.9858C15.0871 28.409 15.1523 29.9443 15.5759 31.4817C15.6178 31.7914 15.502 31.4563 17.7296 37.1801C20.3981 44.0378 19.489 50.0682 16.5823 56.7286C13.7908 63.1254 17.7661 71 25.4828 71H42.1234C49.8352 71 53.8259 63.119 51.0042 56.7114C51.0042 56.7113 51.0041 56.7111 51.0041 56.711L50.9538 56.5967C47.9951 49.8782 47.9426 42.2419 50.4748 35.6826C52.0555 31.5879 51.995 31.7663 52.0336 31.4857C52.4552 29.9512 52.5199 28.4184 52.2164 26.9978C51.7337 24.7375 50.7207 22.7771 49.4372 20.3104C53.6347 18.9718 56.684 15.0361 56.684 10.4004ZM27.5629 6.24023C27.5629 5.09328 28.496 4.16016 29.6429 4.16016H37.9633C39.1102 4.16016 40.0433 5.09328 40.0433 6.24023V8.32031H27.5629V6.24023ZM23.4027 14.5605C23.4027 13.4136 24.3358 12.4805 25.4828 12.4805H42.1234C43.2704 12.4805 44.2035 13.4136 44.2035 14.5605V16.6406H23.4027V14.5605ZM48.2357 29.1211H37.9634C36.8146 29.1211 35.8833 30.0524 35.8833 31.2012C35.8833 32.3499 36.8146 33.2812 37.9634 33.2812H46.9427L46.5939 34.1846C45.6527 36.6226 45.0291 39.1647 44.7198 41.7402H37.9633C36.8145 41.7402 35.8832 42.6716 35.8832 43.8203C35.8832 44.9691 36.8145 45.9004 37.9633 45.9004H44.4953C44.5263 48.7569 44.939 51.6077 45.7317 54.3594H37.9633C36.8145 54.3594 35.8832 55.2907 35.8832 56.4395C35.8832 57.5882 36.8145 58.5195 37.9633 58.5195H47.2498C48.7037 62.0401 46.8736 66.8398 42.1234 66.8398H25.4828C20.8291 66.8398 18.8501 62.1525 20.3444 58.5195H29.6429C30.7917 58.5195 31.723 57.5882 31.723 56.4395C31.723 55.2907 30.7917 54.3594 29.6429 54.3594H21.9346C22.8896 51.4143 23.4013 48.6225 23.4709 45.9004C26.333 45.9004 25.1668 45.9004 29.6429 45.9004C30.7917 45.9004 31.723 44.9691 31.723 43.8203C31.723 42.6716 30.7917 41.7402 29.6429 41.7402C28.7109 41.7402 24.1547 41.7402 23.2283 41.7402C22.9383 39.7149 22.3975 37.7042 21.6065 35.6714L20.6763 33.2812H29.6429C30.7917 33.2812 31.723 32.3499 31.723 31.2012C31.723 30.0524 30.7917 29.1211 29.6429 29.1211H19.3725C19.3479 28.7135 19.3681 28.2873 19.46 27.8585C19.8309 26.1298 20.6981 24.4631 21.8981 22.1564C22.1174 21.735 22.3532 21.2817 22.6001 20.8009H45.0061C45.2528 21.2817 45.4886 21.7347 45.7078 22.156C46.9097 24.4659 47.778 26.1348 48.148 27.8671C48.239 28.2931 48.2594 28.7164 48.2357 29.1211ZM48.3636 16.2829V14.5605C48.3636 11.8488 46.6246 9.53674 44.2035 8.67809V6.24023C44.2035 5.5111 44.0766 4.81122 43.8457 4.16016H46.2836C49.7244 4.16016 52.5238 6.95953 52.5238 10.4004C52.5238 13.1121 50.7846 15.4242 48.3636 16.2829Z" fill="#B2916A"/>
</svg>
