<svg width="71" height="71" viewBox="0 0 71 71" fill="none" xmlns="http://www.w3.org/2000/svg">
<g clip-path="url(#clip0_21_1652)">
<path d="M55.8219 32.5618C55.171 32.5618 54.5295 32.6031 53.8998 32.683L52.5697 28.1146H54.0449C58.2339 28.1146 61.6419 24.7066 61.6419 20.5176V14.7925H48.6909L46.737 8.08191H35.6763V12.2421H43.6152L46.9991 23.8642H22.8822L20.6552 17.4968H12.1716V21.6569H17.703L22.0982 34.2232C20.0058 33.1538 17.6467 32.5619 15.1782 32.5619C6.80893 32.5618 0 39.3707 0 47.74C0 56.1092 6.80893 62.918 15.1782 62.918C21.4016 62.918 26.9276 59.1566 29.2392 53.459C29.8196 53.2196 30.356 52.8952 30.8322 52.5003L32.5855 57.4681H38.6742V53.3079H35.5288L32.0831 43.5449L48.7548 29.8942L49.8839 33.7723C44.4572 36.0881 40.6438 41.477 40.6438 47.7401C40.6438 56.1094 47.4527 62.9182 55.8218 62.9182C64.1909 62.9182 71 56.1092 71 47.74C71 39.3707 64.1911 32.5618 55.8219 32.5618ZM57.4817 18.9527V20.5176C57.4817 22.4127 55.94 23.9544 54.0449 23.9544H51.3585L49.9022 18.9527H57.4817ZM44.4717 28.0243L28.8198 40.8401L24.3373 28.0243H44.4717ZM26.8894 49.7638H15.1782C14.0623 49.7638 13.1543 48.8559 13.1543 47.74C13.1543 46.6241 14.0622 45.7161 15.1782 45.7161H26.8894C28.0053 45.7161 28.9134 46.624 28.9134 47.74C28.9134 48.856 28.0053 49.7638 26.8894 49.7638ZM15.1782 58.7579C9.10284 58.7579 4.16016 53.8153 4.16016 47.74C4.16016 41.6646 9.10284 36.722 15.1782 36.722C18.9074 36.722 22.2925 38.5813 24.3046 41.5559H15.1782C11.7683 41.5559 8.99412 44.33 8.99412 47.74C8.99412 51.1499 11.7683 53.9239 15.1782 53.9239H24.3046C22.2925 56.8986 18.9074 58.7579 15.1782 58.7579ZM55.8219 58.7579C49.7466 58.7579 44.8041 53.8152 44.8041 47.74C44.8041 43.3699 47.3616 39.5859 51.0584 37.8061L54.12 48.3214L58.1145 47.1584L55.0838 36.7494C55.328 36.7332 55.5736 36.722 55.8219 36.722C61.8973 36.722 66.8398 41.6646 66.8398 47.74C66.8398 53.8153 61.8972 58.7579 55.8219 58.7579Z" fill="#B2916A"/>
</g>
<defs>
<clipPath id="clip0_21_1652">
<rect width="71" height="71" fill="white"/>
</clipPath>
</defs>
</svg>
