<svg width="71" height="71" viewBox="0 0 71 71" fill="none" xmlns="http://www.w3.org/2000/svg">
<g clip-path="url(#clip0_0_5140)">
<path d="M35.4431 51.9702C31.5851 51.9702 29.2205 49.3822 28.7856 48.8633L25.6299 51.5085C26.2709 52.2731 29.7562 56.0878 35.4431 56.0878C41.1299 56.0878 44.6153 52.2731 45.2562 51.5085L42.1005 48.8633C41.6656 49.3822 39.301 51.9702 35.4431 51.9702Z" fill="#B2916A"/>
<path d="M27.208 37.5593H31.3256C31.3256 34.1536 28.555 31.3828 25.1491 31.3828C21.7433 31.3828 18.9727 34.1536 18.9727 37.5593H23.0903C23.0903 36.424 24.0139 35.5005 25.1491 35.5005C26.2844 35.5005 27.208 36.424 27.208 37.5593Z" fill="#B2916A"/>
<path d="M45.737 31.3828C42.3312 31.3828 39.5605 34.1536 39.5605 37.5593H43.6782C43.6782 36.424 44.6016 35.5005 45.737 35.5005C46.8724 35.5005 47.7958 36.424 47.7958 37.5593H51.9135C51.9135 34.1536 49.1429 31.3828 45.737 31.3828Z" fill="#B2916A"/>
<path d="M60.1549 31.3821C56.2892 22.0985 47.5082 15.7609 37.5022 14.9909V8.73506C37.5022 7.59983 38.4256 6.67624 39.561 6.67624C40.6964 6.67624 41.6198 7.59983 41.6198 8.73506V10.7939H45.7375V8.73506C45.7375 5.32936 42.9669 2.55859 39.561 2.55859C36.222 2.55859 33.4953 5.22216 33.3896 8.53618C32.7297 7.95504 31.9951 7.41618 31.1852 6.92412C28.3904 5.22628 25.6598 4.67836 25.5448 4.65585L24.7537 8.69677C24.8268 8.71105 31.2769 10.035 32.9884 15.0246C23.1472 15.9293 14.5464 22.2213 10.7318 31.3823C5.05801 31.3849 0.443359 36.0017 0.443359 41.6762C0.443359 47.3508 5.05801 51.9675 10.7318 51.9704C14.8606 61.8858 24.5965 68.4409 35.4434 68.4409C46.2902 68.4409 56.0261 61.8858 60.1549 51.9704C65.8287 51.9675 70.4434 47.3508 70.4434 41.6762C70.4434 36.0017 65.8287 31.3849 60.1549 31.3821ZM59.1241 47.764L57.4094 47.4755L56.8381 49.1179C53.6751 58.2127 45.0771 64.3233 35.4434 64.3233C25.8096 64.3233 17.2117 58.2127 14.0486 49.1181L13.4774 47.4757L11.7626 47.7642C7.95216 48.4037 4.56101 45.449 4.56101 41.6762C4.56101 37.9038 7.95189 34.9488 11.7626 35.5883L13.4774 35.8768L14.0486 34.2344C17.2117 25.1398 25.8096 19.0292 35.4434 19.0292C45.0771 19.0292 53.6751 25.1398 56.8381 34.2344L57.4094 35.8768L59.1241 35.5883C59.4739 35.5297 59.8189 35.4998 60.1492 35.4998C63.5551 35.4998 66.3257 38.2705 66.3257 41.6762C66.3257 45.4487 62.9348 48.4037 59.1241 47.764Z" fill="#B2916A"/>
</g>
<defs>
<clipPath id="clip0_0_5140">
<rect width="70" height="70" fill="white" transform="translate(0.443359 0.5)"/>
</clipPath>
</defs>
</svg>
