<svg width="72" height="71" viewBox="0 0 72 71" fill="none" xmlns="http://www.w3.org/2000/svg">
<path d="M40.7161 66.8373H38.0223V48.3696H56.6397C57.7884 48.3696 58.7197 47.4383 58.7197 46.2895V37.9693C58.7197 36.8205 57.7884 35.8892 56.6397 35.8892H38.0224V15.0242H69.3632C70.3863 15.0242 71.2574 14.2802 71.4176 13.2697C71.5776 12.2593 70.9791 11.2823 70.006 10.966L36.5849 0.101819C36.167 -0.0339397 35.7167 -0.0339397 35.2989 0.101819L1.88055 10.966C0.907493 11.2823 0.309128 12.2593 0.469154 13.2697C0.629319 14.2802 1.50059 15.0242 2.52357 15.0242H33.8621V35.8894H15.2469C14.0982 35.8894 13.1668 36.8207 13.1668 37.9694V46.2897C13.1668 47.4384 14.0982 48.3698 15.2469 48.3698H33.8621V66.8374H30.5921C29.4434 66.8374 28.5121 67.7687 28.5121 68.9175C28.5121 70.0662 29.4434 70.9975 30.5921 70.9975H40.7161C41.8648 70.9975 42.7961 70.0662 42.7961 68.9175C42.7961 67.7686 41.865 66.8373 40.7161 66.8373ZM35.9419 4.26722L56.2359 10.8641H15.6499L35.9419 4.26722ZM17.327 40.0495H54.5596V44.2096H17.327V40.0495Z" fill="#B2916A"/>
<path d="M17.7489 54.3611H4.60593V42.1289C4.60593 40.9801 3.67462 40.0488 2.52587 40.0488C1.37712 40.0488 0.445801 40.9801 0.445801 42.1289V68.9189C0.445801 70.0676 1.37712 70.999 2.52587 70.999C3.67462 70.999 4.60593 70.0676 4.60593 68.9189V58.5212H13.1668V68.9189C13.1668 70.0676 14.0981 70.999 15.2469 70.999C16.3956 70.999 17.3269 70.0676 17.3269 68.9189V58.5212H17.7489C18.8976 58.5212 19.829 57.5899 19.829 56.4411C19.829 55.2924 18.8978 54.3611 17.7489 54.3611Z" fill="#B2916A"/>
<path d="M69.3622 40.0488C68.2134 40.0488 67.2821 40.9801 67.2821 42.1289V54.3611H54.1391C52.9904 54.3611 52.0591 55.2924 52.0591 56.4411C52.0591 57.5899 52.9904 58.5212 54.1391 58.5212H54.5611V68.9189C54.5611 70.0676 55.4924 70.999 56.6412 70.999C57.7899 70.999 58.7213 70.0676 58.7213 68.9189V58.5212H67.2821V68.9189C67.2821 70.0676 68.2134 70.999 69.3622 70.999C70.5109 70.999 71.4422 70.0676 71.4422 68.9189V42.1289C71.4422 40.9801 70.5109 40.0488 69.3622 40.0488Z" fill="#B2916A"/>
</svg>
