<svg width="72" height="72" viewBox="0 0 72 72" fill="none" xmlns="http://www.w3.org/2000/svg">
<g clip-path="url(#clip0_0_5148)">
<path d="M71.179 21.1113L63.5528 7.53687C63.3121 7.10834 62.9263 6.78005 62.4649 6.61091L52.2209 2.85454C51.9935 2.77122 51.7531 2.72852 51.5111 2.72852H50.8925H20.3756C20.1334 2.72852 19.8932 2.77122 19.6658 2.85454L9.42177 6.61091C8.96039 6.78005 8.5747 7.10834 8.33389 7.53687L0.707731 21.1113C0.22361 21.9729 0.419088 23.0569 1.17369 23.6953L10.991 32.0007C11.8447 32.7225 13.1183 32.633 13.8622 31.7982L15.7019 29.7338V67.2088C15.7019 68.3476 16.6251 69.2708 17.7639 69.2708H54.1228C55.2616 69.2708 56.1848 68.3476 56.1848 67.2088V29.7338L58.0245 31.7982C58.7684 32.6333 60.0421 32.7227 60.8957 32.0007L70.713 23.6953C71.4676 23.057 71.6631 21.973 71.179 21.1113ZM60.5096 10.5395L19.8258 63.2895V56.5371L56.6021 8.85337L60.3305 10.2205L60.5096 10.5395ZM42.3164 6.85242C41.7267 9.66107 39.2253 11.7804 36.2492 11.7804C33.2611 11.7804 30.7682 9.68478 30.1821 6.85242H42.3164ZM12.1202 27.5544L5.13705 21.6467L11.5562 10.2206L20.7416 6.85256H26.0069C26.6355 11.9918 30.98 15.9045 36.249 15.9045C41.4992 15.9045 45.8599 11.9429 46.4906 6.85256H51.1449L52.5421 7.36482L19.8258 49.7845V24.3206C19.8258 23.4649 19.2973 22.6982 18.4978 22.3937C17.6984 22.0893 16.7937 22.3099 16.2244 22.9488L12.1202 27.5544ZM23.6013 65.1467L52.0609 28.2465V65.1469H23.6013V65.1467ZM59.7664 27.5544L55.9219 23.2403L62.7044 14.4463L66.7495 21.6467L59.7664 27.5544Z" fill="#B2916A"/>
</g>
<defs>
<clipPath id="clip0_0_5148">
<rect width="71" height="71" fill="white" transform="translate(0.443359 0.5)"/>
</clipPath>
</defs>
</svg>
