<svg width="72" height="71" viewBox="0 0 72 71" fill="none" xmlns="http://www.w3.org/2000/svg">
<g clip-path="url(#clip0_0_5187)">
<path d="M65.2031 13.3124H54.3174V6.65625H65.2031C66.3519 6.65625 67.2832 5.72493 67.2832 4.57617C67.2832 3.42741 66.3519 2.49609 65.2031 2.49609H52.2373C51.0885 2.49609 50.1572 3.42741 50.1572 4.57617V13.3124H39.2715C35.8306 13.3124 33.0312 16.1117 33.0312 19.5526V23.7129C33.0312 24.8616 33.9626 25.793 35.1113 25.793H35.1166L35.4785 30.5078H16.252C9.9055 30.5078 4.74219 35.671 4.74219 42.0176V42.0649C2.17496 43.5538 0.443359 46.3306 0.443359 49.5059C0.443359 52.6812 2.17496 55.4579 4.74219 56.9469V56.9943C4.74219 63.3407 9.90536 68.5039 16.252 68.5039H64.1499C65.237 68.5039 66.1405 67.667 66.2239 66.5832L69.3577 25.793H69.3633C70.512 25.793 71.4434 24.8616 71.4434 23.7129V19.5526C71.4434 16.1117 68.644 13.3124 65.2031 13.3124ZM37.1914 19.5526C37.1914 18.4056 38.1245 17.4725 39.2715 17.4725H65.2031C66.3501 17.4725 67.2832 18.4056 67.2832 19.5526V21.6328H37.1914V19.5526ZM5.21631 51.7521C5.33224 51.697 5.44789 51.6418 5.56243 51.587C6.80535 50.9912 7.87895 50.4766 9.13476 50.4766C9.85419 50.4766 10.4675 50.798 11.4087 51.3227C12.5057 51.9343 13.8711 52.6953 15.7082 52.6953C17.5453 52.6953 18.9107 51.9343 20.0077 51.3227C20.9489 50.7981 21.5623 50.4766 22.2817 50.4766C23.0011 50.4766 23.6145 50.798 24.5556 51.3227C25.6527 51.9343 27.018 52.6953 28.8551 52.6953C30.6923 52.6953 32.0576 51.9343 33.1547 51.3227C34.096 50.7981 34.7092 50.4766 35.4287 50.4766C35.9675 50.4766 36.4469 50.6571 37.049 50.968L37.2775 53.9434H9.04102C7.41342 53.9434 5.98857 53.062 5.21631 51.7521ZM9.04102 45.0684H36.5962L36.7016 46.4413C36.3038 46.3629 35.8807 46.3164 35.4289 46.3164C33.5918 46.3164 32.2264 47.0774 31.1294 47.689C30.1881 48.2136 29.5749 48.5352 28.8553 48.5352C28.1359 48.5352 27.5225 48.2137 26.5813 47.689C25.4843 47.0774 24.1189 46.3164 22.2818 46.3164C20.4447 46.3164 19.0793 47.0774 17.9823 47.689C17.0411 48.2136 16.4278 48.5352 15.7084 48.5352C14.9889 48.5352 14.3756 48.2137 13.4344 47.689C12.3372 47.0774 10.9719 46.3164 9.13476 46.3164C7.64944 46.3164 6.40043 46.6842 5.28828 47.1419C6.07524 45.8973 7.46265 45.0684 9.04102 45.0684ZM8.98596 40.9082C9.52235 37.3801 12.5763 34.668 16.252 34.668H35.798L36.277 40.9082H9.04102H8.98596ZM8.98596 58.1035H9.04102H37.5969L38.0759 64.3438H16.252C12.5763 64.3438 9.52221 61.6316 8.98596 58.1035ZM62.2235 64.3438H42.2484L39.2891 25.793H65.1854L62.2235 64.3438Z" fill="#B2916A"/>
<path d="M52.2373 50.9512C55.6782 50.9512 58.4775 48.1518 58.4775 44.7109C58.4775 41.2701 55.6782 38.4707 52.2373 38.4707C48.7964 38.4707 45.9971 41.2701 45.9971 44.7109C45.9971 48.1518 48.7964 50.9512 52.2373 50.9512ZM52.2373 42.6309C53.3843 42.6309 54.3174 43.564 54.3174 44.7109C54.3174 45.8579 53.3843 46.791 52.2373 46.791C51.0903 46.791 50.1572 45.8579 50.1572 44.7109C50.1572 43.564 51.0903 42.6309 52.2373 42.6309Z" fill="#B2916A"/>
</g>
<defs>
<clipPath id="clip0_0_5187">
<rect width="71" height="71" fill="white" transform="translate(0.443359)"/>
</clipPath>
</defs>
</svg>
