<svg width="72" height="72" viewBox="0 0 72 72" fill="none" xmlns="http://www.w3.org/2000/svg">
<g clip-path="url(#clip0_0_5152)">
<g clip-path="url(#clip1_0_5152)">
<path d="M31.4873 16.9141H40.3994C43.1563 16.8117 43.1542 12.8553 40.3994 12.7539H31.4873C28.7304 12.8562 28.7325 16.8127 31.4873 16.9141Z" fill="#B2916A"/>
<path d="M49.3114 30.5781H22.5755C19.8185 30.6805 19.8206 34.6369 22.5755 34.7383H49.3114C52.0683 34.6359 52.0663 30.6795 49.3114 30.5781Z" fill="#B2916A"/>
<path d="M11.5833 23.7461C11.5833 24.8949 12.5146 25.8262 13.6633 25.8262H58.2232C60.9801 25.7238 60.978 21.7674 58.2232 21.666H13.6633C12.5146 21.666 11.5833 22.5972 11.5833 23.7461Z" fill="#B2916A"/>
<path d="M69.3633 3.8418H2.52344C1.37468 3.8418 0.443359 4.77312 0.443359 5.92187V59.3939C0.443359 60.5426 1.37468 61.474 2.52344 61.474H29.4073V66.0779C29.4073 66.7987 29.7806 67.4682 30.3939 67.8473C31.0071 68.2265 31.7729 68.2607 32.4176 67.9383L35.9434 66.1754L39.4691 67.9383C40.1138 68.2607 40.8797 68.2265 41.4929 67.8473C42.1061 67.4683 42.4794 66.7987 42.4794 66.0779V61.474H69.3633C70.512 61.474 71.4434 60.5426 71.4434 59.3939V5.92187C71.4434 4.77312 70.512 3.8418 69.3633 3.8418ZM4.60352 8.00195H13.0976L4.60352 16.4962V8.00195ZM4.60352 57.3138V48.8196L13.0976 57.3138H4.60352ZM38.3192 62.7123L36.8736 61.9894C36.288 61.6965 35.5986 61.6965 35.013 61.9894L33.5674 62.7123V56.6906C35.0947 57.1258 36.7919 57.1258 38.3192 56.6906V62.7123ZM35.9434 52.8577C33.4047 52.8577 31.3395 50.7924 31.3395 48.2538C31.5709 42.1546 40.3168 42.1563 40.5473 48.2538C40.5473 50.7925 38.482 52.8577 35.9434 52.8577ZM67.2832 57.3138H58.7891L67.2832 48.8196V57.3138ZM67.2832 42.9363L52.9057 57.3138H42.4794V54.0841C47.4993 48.5961 43.4555 39.429 35.9432 39.4899C28.4054 39.4626 24.3938 48.5552 29.4073 54.0841V57.3138H18.981L4.60352 42.9363V22.3795L18.981 8.00195H52.9057L67.2832 22.3795V42.9363ZM67.2832 16.4962L58.7891 8.00195H67.2832V16.4962Z" fill="#B2916A"/>
</g>
</g>
<defs>
<clipPath id="clip0_0_5152">
<rect width="71" height="71" fill="white" transform="translate(0.443359 0.5)"/>
</clipPath>
<clipPath id="clip1_0_5152">
<rect width="71" height="71" fill="white" transform="translate(0.443359 0.5)"/>
</clipPath>
</defs>
</svg>
