<svg width="72" height="71" viewBox="0 0 72 71" fill="none" xmlns="http://www.w3.org/2000/svg">
<g clip-path="url(#clip0_0_5193)">
<path d="M67.2832 37.9379V35.5C67.2832 18.2957 53.2242 4.29883 35.9434 4.29883C18.6625 4.29883 4.60352 18.2957 4.60352 35.5V37.9379C2.18244 38.7965 0.443359 41.1086 0.443359 43.8203V60.4609C0.443359 63.9018 3.24273 66.7012 6.68359 66.7012H15.0039C16.1527 66.7012 17.084 65.7699 17.084 64.6211V39.6602C17.084 38.5114 16.1527 37.5801 15.0039 37.5801H8.76367V35.5C8.76367 20.5896 20.9564 8.45898 35.9434 8.45898C50.9303 8.45898 63.123 20.5896 63.123 35.5V37.5801H56.8828C55.7341 37.5801 54.8027 38.5114 54.8027 39.6602V64.6211C54.8027 65.7699 55.7341 66.7012 56.8828 66.7012H65.2031C68.644 66.7012 71.4434 63.9018 71.4434 60.4609V43.8203C71.4434 41.1086 69.7043 38.7965 67.2832 37.9379ZM12.9238 62.541H6.68359C5.53664 62.541 4.60352 61.6079 4.60352 60.4609V43.8203C4.60352 42.6734 5.53664 41.7402 6.68359 41.7402H12.9238V62.541ZM67.2832 60.4609C67.2832 61.6079 66.3501 62.541 65.2031 62.541H58.9629V41.7402H65.2031C66.3501 41.7402 67.2832 42.6734 67.2832 43.8203V60.4609Z" fill="#B2916A"/>
<path d="M37.4145 34.0299C36.0906 32.707 33.869 33.6728 33.8636 35.4943C33.8636 35.4963 33.8633 35.4983 33.8633 35.5004V50.4187C33.2122 50.1878 32.5123 50.0609 31.7832 50.0609C28.3423 50.0609 25.543 52.8603 25.543 56.3011C25.543 59.742 28.3423 62.5414 31.7832 62.5414C35.2241 62.5414 38.0234 59.742 38.0234 56.3011V40.5221L42.7929 45.2916C44.2757 46.7745 44.2757 49.1873 42.7929 50.6702C41.9806 51.4826 41.9806 52.7995 42.7929 53.6119C43.6051 54.4242 44.9222 54.4244 45.7346 53.6119C48.8396 50.5069 48.8396 45.4549 45.7346 42.3499L37.4145 34.0299ZM31.7832 58.3812C30.6362 58.3812 29.7031 57.4481 29.7031 56.3011C29.7031 55.1542 30.6362 54.2211 31.7832 54.2211C32.9302 54.2211 33.8633 55.1542 33.8633 56.3011C33.8633 57.4481 32.9302 58.3812 31.7832 58.3812Z" fill="#B2916A"/>
</g>
<defs>
<clipPath id="clip0_0_5193">
<rect width="71" height="71" fill="white" transform="translate(0.443359)"/>
</clipPath>
</defs>
</svg>
