<svg width="72" height="72" viewBox="0 0 72 72" fill="none" xmlns="http://www.w3.org/2000/svg">
<g clip-path="url(#clip0_0_5161)">
<path d="M35.3457 40.6271C35.5407 40.6856 35.742 40.7148 35.9434 40.7148C36.1447 40.7148 36.3461 40.6856 36.541 40.6271C41.0111 39.2861 44.8465 36.5981 47.6323 32.854C50.4181 29.1097 51.8906 24.6637 51.8906 19.9968V8.12695C51.8906 6.9782 50.9593 6.04688 49.8105 6.04688C47.182 6.04688 44.8189 4.58638 43.6435 2.23562L43.3508 1.65001C42.9984 0.945137 42.2782 0.5 41.4902 0.5H30.3965C29.6086 0.5 28.8883 0.945137 28.5359 1.64987L28.2432 2.23534C27.0678 4.58638 24.7047 6.04688 22.0762 6.04688C20.9274 6.04688 19.9961 6.9782 19.9961 8.12695V19.9968C19.9961 24.6637 21.4686 29.1097 24.2544 32.854C27.0402 36.5981 30.8756 39.2861 35.3457 40.6271ZM24.1562 10.0133C27.3042 9.4191 30.0411 7.48948 31.6619 4.66016H40.2249C41.8456 7.48934 44.5825 9.4191 47.7305 10.0133V19.997C47.7305 27.5208 43.0196 34.0562 35.9434 36.4518C28.8671 34.0562 24.1562 27.5208 24.1562 19.997V10.0133Z" fill="#B2916A"/>
<path d="M33.9822 26.6101C34.5146 26.6101 35.0469 26.4071 35.453 26.0008L43.2974 18.1564C44.1097 17.344 44.1097 16.0271 43.2974 15.2147C42.4852 14.4024 41.1681 14.4024 40.3557 15.2147L33.9821 21.5882L31.5306 19.1369C30.7184 18.3246 29.4013 18.3246 28.589 19.1369C27.7767 19.9493 27.7767 21.2662 28.589 22.0786L32.5112 26.0008C32.9175 26.4071 33.4499 26.6101 33.9822 26.6101Z" fill="#B2916A"/>
<path d="M63.2842 49.4108C64.8979 47.7811 65.8965 45.5415 65.8965 43.0723C65.8965 38.1021 61.853 34.0586 56.8828 34.0586C51.9127 34.0586 47.8691 38.1021 47.8691 43.0723C47.8691 45.5372 48.8645 47.7732 50.4733 49.4022C47.1496 51.0276 44.537 53.8823 43.2333 57.3944C42.7546 57.0164 42.2464 56.6746 41.7121 56.3733C42.8684 55.0359 43.5703 53.2952 43.5703 51.3926C43.5703 47.1871 40.1489 43.7656 35.9434 43.7656C31.7379 43.7656 28.3164 47.1871 28.3164 51.3926C28.3164 53.2952 29.0184 55.0359 30.1746 56.3733C29.6403 56.6744 29.1321 57.0164 28.6534 57.3944C27.3497 53.8823 24.737 51.0276 21.4135 49.4022C23.0222 47.7732 24.0176 45.5372 24.0176 43.0723C24.0176 38.1021 19.974 34.0586 15.0039 34.0586C10.0338 34.0586 5.99023 38.1021 5.99023 43.0723C5.99023 45.5415 6.98881 47.7811 8.60254 49.4108C3.77454 51.784 0.443359 56.7532 0.443359 62.4863V69.4199C0.443359 70.5687 1.37468 71.5 2.52344 71.5H69.3633C70.512 71.5 71.4434 70.5687 71.4434 69.4199V62.4863C71.4434 56.7532 68.1122 51.784 63.2842 49.4108ZM52.0293 43.0723C52.0293 40.396 54.2066 38.2188 56.8828 38.2188C59.559 38.2188 61.7363 40.396 61.7363 43.0723C61.7363 45.7485 59.559 47.9258 56.8828 47.9258C54.2066 47.9258 52.0293 45.7485 52.0293 43.0723ZM32.4766 51.3926C32.4766 49.481 34.0318 47.9258 35.9434 47.9258C37.8549 47.9258 39.4102 49.481 39.4102 51.3926C39.4102 53.3042 37.8549 54.8594 35.9434 54.8594C34.0318 54.8594 32.4766 53.3042 32.4766 51.3926ZM10.1504 43.0723C10.1504 40.396 12.3277 38.2188 15.0039 38.2188C17.6801 38.2188 19.8574 40.396 19.8574 43.0723C19.8574 45.7485 17.6801 47.9258 15.0039 47.9258C12.3277 47.9258 10.1504 45.7485 10.1504 43.0723ZM4.60352 62.4863C4.60352 56.7516 9.26913 52.0859 15.0039 52.0859C20.398 52.0859 24.846 56.1679 25.3549 61.4735C24.5884 63.0363 24.1562 64.7916 24.1562 66.6465V67.3398H4.60352V62.4863ZM43.5703 67.3398H28.3164V66.6465C28.3164 62.441 31.7379 59.0195 35.9434 59.0195C40.1489 59.0195 43.5703 62.441 43.5703 66.6465V67.3398ZM67.2832 67.3398H47.7305V66.6465C47.7305 64.7916 47.2984 63.0363 46.5318 61.4735C47.0407 56.1679 51.4888 52.0859 56.8828 52.0859C62.6176 52.0859 67.2832 56.7516 67.2832 62.4863V67.3398Z" fill="#B2916A"/>
</g>
<defs>
<clipPath id="clip0_0_5161">
<rect width="71" height="71" fill="white" transform="translate(0.443359 0.5)"/>
</clipPath>
</defs>
</svg>
