<svg width="96" height="95" viewBox="0 0 96 95" fill="none" xmlns="http://www.w3.org/2000/svg">
<path d="M47.9974 4.94922C49.637 4.94922 50.9661 6.27837 50.9661 7.91797V11.8763C50.9661 13.5159 49.637 14.8451 47.9974 14.8451C46.3578 14.8451 45.0286 13.5159 45.0286 11.8763V7.91797C45.0286 6.27837 46.3578 4.94922 47.9974 4.94922Z" fill="white"/>
<path fill-rule="evenodd" clip-rule="evenodd" d="M25.237 47.5013C25.237 34.9311 35.4272 24.7409 47.9974 24.7409C60.5676 24.7409 70.7578 34.9311 70.7578 47.5013C70.7578 60.0715 60.5676 70.2617 47.9974 70.2617C35.4272 70.2617 25.237 60.0715 25.237 47.5013ZM47.9974 30.6784C38.7064 30.6784 31.1745 38.2103 31.1745 47.5013C31.1745 56.7923 38.7064 64.3242 47.9974 64.3242C57.2884 64.3242 64.8203 56.7923 64.8203 47.5013C64.8203 38.2103 57.2884 30.6784 47.9974 30.6784Z" fill="white"/>
<path d="M22.107 17.4125C20.9477 16.2532 19.068 16.2532 17.9086 17.4125C16.7492 18.5719 16.7492 20.4516 17.9086 21.611L20.7075 24.4099C21.8669 25.5693 23.7466 25.5693 24.906 24.4099C26.0654 23.2506 26.0654 21.3709 24.906 20.2115L22.107 17.4125Z" fill="white"/>
<path d="M90.5495 47.5013C90.5495 49.1409 89.2203 50.4701 87.5807 50.4701H83.6224C81.9828 50.4701 80.6536 49.1409 80.6536 47.5013C80.6536 45.8617 81.9828 44.5326 83.6224 44.5326H87.5807C89.2203 44.5326 90.5495 45.8617 90.5495 47.5013Z" fill="white"/>
<path d="M78.0862 21.6109C79.2455 20.4516 79.2455 18.5719 78.0862 17.4125C76.9268 16.2531 75.0471 16.2531 73.8877 17.4125L71.0888 20.2115C69.9294 21.3708 69.9294 23.2505 71.0888 24.4099C72.2481 25.5693 74.1278 25.5693 75.2872 24.4099L78.0862 21.6109Z" fill="white"/>
<path d="M47.9974 80.1575C49.637 80.1575 50.9661 81.4867 50.9661 83.1263V87.0846C50.9661 88.7242 49.637 90.0534 47.9974 90.0534C46.3578 90.0534 45.0286 88.7242 45.0286 87.0846V83.1263C45.0286 81.4867 46.3578 80.1575 47.9974 80.1575Z" fill="white"/>
<path d="M75.2875 70.5927C74.1281 69.4334 72.2484 69.4334 71.089 70.5927C69.9296 71.7521 69.9296 73.6318 71.089 74.7912L73.888 77.5901C75.0474 78.7495 76.9271 78.7495 78.0864 77.5901C79.2458 76.4308 79.2458 74.5511 78.0864 73.3917L75.2875 70.5927Z" fill="white"/>
<path d="M15.3411 47.5013C15.3411 49.1409 14.012 50.4701 12.3724 50.4701H8.41406C6.77447 50.4701 5.44531 49.1409 5.44531 47.5013C5.44531 45.8617 6.77447 44.5326 8.41406 44.5326H12.3724C14.012 44.5326 15.3411 45.8617 15.3411 47.5013Z" fill="white"/>
<path d="M24.9057 74.7911C26.0651 73.6318 26.0651 71.7521 24.9057 70.5927C23.7464 69.4333 21.8667 69.4333 20.7073 70.5927L17.9083 73.3916C16.749 74.551 16.749 76.4307 17.9083 77.5901C19.0677 78.7495 20.9474 78.7495 22.1068 77.5901L24.9057 74.7911Z" fill="white"/>
</svg>
