<svg width="55" height="54" viewBox="0 0 55 54" fill="none" xmlns="http://www.w3.org/2000/svg">
<g clip-path="url(#clip0_2028_9971)">
<path d="M24.1248 27.0007C25.6918 27.0005 27.2432 27.3121 28.6886 27.9173C30.134 28.5225 31.4445 29.4093 32.5439 30.5259C33.6432 31.6425 34.5094 32.9667 35.092 34.4214C35.6746 35.876 35.962 37.4321 35.9373 38.9989C35.9334 39.2583 35.9893 39.5151 36.1007 39.7494C36.2121 39.9837 36.3761 40.1891 36.5798 40.3498C36.7836 40.5104 37.0216 40.6219 37.2754 40.6756C37.5292 40.7293 37.792 40.7237 38.0433 40.6594C38.7917 40.4676 39.5739 40.4494 40.3304 40.606C41.0869 40.7626 41.7976 41.0898 42.4084 41.5629C43.0191 42.0359 43.5138 42.6422 43.8546 43.3355C44.1954 44.0288 44.3733 44.7907 44.3748 45.5632C44.3748 46.9059 43.8415 48.1936 42.8921 49.143C41.9427 50.0924 40.655 50.6257 39.3123 50.6257H10.6248C9.72744 50.6207 8.84005 50.4367 8.01459 50.0846C7.18913 49.7325 6.44217 49.2193 5.8174 48.5751C5.19263 47.9309 4.70259 47.1685 4.37595 46.3327C4.04932 45.4968 3.89263 44.6042 3.91507 43.7071C3.93751 42.8099 4.13862 41.9263 4.50664 41.1078C4.87466 40.2893 5.40219 39.5524 6.05839 38.9402C6.71459 38.328 7.48627 37.8528 8.3283 37.5425C9.17033 37.2321 10.0658 37.0927 10.9623 37.1325C11.3512 37.1525 11.735 37.0374 12.0488 36.8068C12.3625 36.5761 12.5868 36.244 12.6836 35.8669C13.3382 33.3299 14.8173 31.0824 16.8883 29.4775C18.9593 27.8727 21.5048 27.0014 24.1248 27.0007ZM39.2212 37.1257C38.8415 33.704 37.3105 30.5127 34.8791 28.0752C32.4478 25.6377 29.2604 24.0986 25.8396 23.7102C22.4188 23.3219 18.9676 24.1073 16.0517 25.9377C13.1358 27.7681 10.9283 30.5349 9.79122 33.7845C7.18552 33.9978 4.76332 35.2107 3.03164 37.1694C1.29997 39.1281 0.393078 41.6807 0.500793 44.2929C0.608508 46.9051 1.72248 49.3744 3.60954 51.1838C5.49659 52.9933 8.01043 54.0027 10.6248 54.0007H39.3123C41.5501 54.0007 43.6962 53.1118 45.2786 51.5295C46.8609 49.9471 47.7498 47.801 47.7498 45.5632C47.7498 43.3255 46.8609 41.1794 45.2786 39.597C43.6962 38.0147 41.5501 37.1257 39.3123 37.1257H39.2212Z" fill="white"/>
<path d="M35.9384 5.0625C35.9384 4.61495 35.7606 4.18572 35.4441 3.86926C35.1276 3.55279 34.6984 3.375 34.2509 3.375C33.8033 3.375 33.3741 3.55279 33.0576 3.86926C32.7411 4.18572 32.5634 4.61495 32.5634 5.0625V8.4375C32.5634 8.88505 32.7411 9.31427 33.0576 9.63074C33.3741 9.94721 33.8033 10.125 34.2509 10.125C34.6984 10.125 35.1276 9.94721 35.4441 9.63074C35.7606 9.31427 35.9384 8.88505 35.9384 8.4375V5.0625ZM48.571 11.691C48.7322 11.5353 48.8607 11.3491 48.9492 11.1432C49.0376 10.9374 49.0841 10.7159 49.0861 10.4919C49.088 10.2678 49.0453 10.0456 48.9605 9.8382C48.8756 9.63082 48.7503 9.4424 48.5919 9.28396C48.4335 9.12551 48.245 9.00021 48.0377 8.91536C47.8303 8.83051 47.6081 8.78782 47.384 8.78977C47.1599 8.79171 46.9385 8.83826 46.7326 8.9267C46.5267 9.01514 46.3405 9.1437 46.1849 9.30487L43.7954 11.691C43.4785 12.0079 43.3005 12.4376 43.3005 12.8857C43.3005 13.3339 43.4785 13.7636 43.7954 14.0805C44.1122 14.3974 44.542 14.5754 44.9901 14.5754C45.4382 14.5754 45.868 14.3974 46.1849 14.0805L48.571 11.691ZM22.3169 9.30487C21.9986 8.99748 21.5723 8.82739 21.1299 8.83124C20.6874 8.83508 20.2642 9.01255 19.9513 9.32543C19.6384 9.63831 19.4609 10.0616 19.4571 10.504C19.4533 10.9465 19.6233 11.3727 19.9307 11.691L22.3169 14.0805C22.4738 14.2374 22.66 14.3619 22.865 14.4468C23.07 14.5317 23.2897 14.5754 23.5116 14.5754C23.7335 14.5754 23.9532 14.5317 24.1582 14.4468C24.3632 14.3619 24.5495 14.2374 24.7064 14.0805C24.8633 13.9236 24.9877 13.7373 25.0726 13.5323C25.1575 13.3273 25.2012 13.1076 25.2012 12.8857C25.2012 12.6639 25.1575 12.4442 25.0726 12.2392C24.9877 12.0342 24.8633 11.8479 24.7064 11.691L22.3169 9.30487ZM28.1691 20.6921C28.5886 19.8229 29.1896 19.0537 29.9316 18.4364C30.6736 17.8192 31.5394 17.3682 32.4705 17.114C33.4016 16.8598 34.3764 16.8082 35.3291 16.9627C36.2818 17.1173 37.1903 17.4743 37.9933 18.0098C38.7963 18.5453 39.4752 19.2468 39.984 20.067C40.4929 20.8871 40.8199 21.8069 40.9431 22.7642C41.0663 23.7214 40.9828 24.694 40.6981 25.6163C40.4135 26.5385 39.9344 27.389 39.2931 28.1104C39.9647 29.0588 40.5486 30.0746 41.0346 31.1411C42.1784 30.1077 43.0711 28.8268 43.6447 27.396C44.2183 25.9652 44.4576 24.4223 44.3444 22.885C44.2312 21.3476 43.7685 19.8565 42.9915 18.5251C42.2145 17.1937 41.1438 16.0574 39.861 15.2026C38.5782 14.3479 37.1172 13.7973 35.5893 13.5929C34.0615 13.3885 32.5071 13.5356 31.0447 14.0231C29.5823 14.5106 28.2506 15.3256 27.151 16.4058C26.0514 17.4861 25.2129 18.8032 24.6996 20.2568C25.8876 20.2939 27.0486 20.4424 28.1691 20.6921ZM43.3026 34.4419C45.3276 35.1675 47.0995 36.4331 48.4394 38.0599C48.6231 37.9111 48.7735 37.7253 48.8809 37.5147C48.9882 37.304 49.0501 37.0732 49.0625 36.837C49.0749 36.6009 49.0376 36.3649 48.9529 36.1441C48.8682 35.9234 48.7381 35.7229 48.571 35.5556L46.1849 33.1695C45.9443 32.9275 45.636 32.7641 45.3007 32.7009C44.9654 32.6377 44.6187 32.6776 44.3066 32.8154C43.9944 32.9532 43.7314 33.1824 43.5521 33.4728C43.3729 33.7632 43.2859 34.1011 43.3026 34.4419ZM49.4384 21.9375C48.9908 21.9375 48.5616 22.1153 48.2451 22.4318C47.9286 22.7482 47.7509 23.1774 47.7509 23.625C47.7509 24.0726 47.9286 24.5018 48.2451 24.8182C48.5616 25.1347 48.9908 25.3125 49.4384 25.3125H52.8134C53.2609 25.3125 53.6901 25.1347 54.0066 24.8182C54.3231 24.5018 54.5009 24.0726 54.5009 23.625C54.5009 23.1774 54.3231 22.7482 54.0066 22.4318C53.6901 22.1153 53.2609 21.9375 52.8134 21.9375H49.4384Z" fill="white"/>
</g>
<defs>
<clipPath id="clip0_2028_9971">
<rect width="54" height="54" fill="white" transform="translate(0.5)"/>
</clipPath>
</defs>
</svg>
