<svg width="55" height="54" viewBox="0 0 55 54" fill="none" xmlns="http://www.w3.org/2000/svg">
<g clip-path="url(#clip0_2028_9975)">
<path d="M14.5344 40.5835C14.7448 40.6536 14.9393 40.7646 15.1067 40.9099C15.2742 41.0553 15.4114 41.2322 15.5104 41.4306C15.6095 41.6291 15.6685 41.845 15.684 42.0663C15.6995 42.2875 15.6713 42.5096 15.6009 42.7199L13.9134 47.7824C13.7598 48.1909 13.4538 48.524 13.0598 48.7118C12.6658 48.8995 12.2143 48.9273 11.8003 48.7893C11.3862 48.6513 11.0417 48.3582 10.8391 47.9716C10.6366 47.5849 10.5917 47.1349 10.7139 46.7159L12.4014 41.6534C12.5424 41.2287 12.8463 40.8774 13.2463 40.6767C13.6463 40.4761 14.1097 40.4426 14.5344 40.5835ZM24.6594 40.5835C24.8698 40.6536 25.0643 40.7646 25.2317 40.9099C25.3992 41.0553 25.5364 41.2322 25.6354 41.4306C25.7345 41.6291 25.7935 41.845 25.809 42.0663C25.8245 42.2875 25.7963 42.5096 25.7259 42.7199L22.3509 52.8449C22.1973 53.2534 21.8913 53.5865 21.4973 53.7743C21.1033 53.962 20.6518 53.9898 20.2378 53.8518C19.8237 53.7138 19.4792 53.4207 19.2766 53.0341C19.0741 52.6474 19.0292 52.1974 19.1514 51.7784L22.5264 41.6534C22.6674 41.2287 22.9713 40.8774 23.3713 40.6767C23.7713 40.4761 24.2347 40.4426 24.6594 40.5835ZM34.7844 40.5835C34.9948 40.6536 35.1893 40.7646 35.3567 40.9099C35.5242 41.0553 35.6614 41.2322 35.7604 41.4306C35.8595 41.6291 35.9185 41.845 35.934 42.0663C35.9495 42.2875 35.9213 42.5096 35.8509 42.7199L34.1634 47.7824C34.0098 48.1909 33.7038 48.524 33.3098 48.7118C32.9158 48.8995 32.4643 48.9273 32.0503 48.7893C31.6362 48.6513 31.2917 48.3582 31.0891 47.9716C30.8866 47.5849 30.8417 47.1349 30.9639 46.7159L32.6514 41.6534C32.7924 41.2287 33.0963 40.8774 33.4963 40.6767C33.8963 40.4761 34.3597 40.4426 34.7844 40.5835ZM44.9094 40.5835C45.1198 40.6536 45.3143 40.7646 45.4817 40.9099C45.6492 41.0553 45.7864 41.2322 45.8854 41.4306C45.9845 41.6291 46.0435 41.845 46.059 42.0663C46.0745 42.2875 46.0463 42.5096 45.9759 42.7199L42.6009 52.8449C42.5373 53.0628 42.4305 53.2656 42.2867 53.4413C42.1429 53.6169 41.9651 53.7618 41.7641 53.8671C41.563 53.9725 41.3428 54.0362 41.1165 54.0544C40.8902 54.0727 40.6626 54.0451 40.4473 53.9733C40.2319 53.9015 40.0333 53.787 39.8632 53.6367C39.6931 53.4863 39.5551 53.3032 39.4575 53.0983C39.3599 52.8934 39.3046 52.6708 39.2949 52.444C39.2853 52.2173 39.3215 51.9908 39.4014 51.7784L42.7764 41.6534C42.9174 41.2287 43.2213 40.8774 43.6213 40.6767C44.0213 40.4761 44.4847 40.4426 44.9094 40.5835ZM45.743 16.9653C45.0421 13.4322 43.2294 10.216 40.5698 7.78687C37.9102 5.35778 34.5433 3.84321 30.9613 3.46461C27.3794 3.08601 23.7702 3.86324 20.6616 5.68266C17.5529 7.50208 15.1079 10.2683 13.6839 13.5768C12.087 13.3928 10.4693 13.5367 8.92993 13.9997C7.39056 14.4626 5.96188 15.2349 4.73136 16.2692C3.50084 17.3036 2.49438 18.5782 1.77359 20.015C1.0528 21.4518 0.632865 23.0207 0.539481 24.6254C0.446098 26.2302 0.681236 27.8371 1.2305 29.3479C1.77976 30.8586 2.63159 32.2413 3.73383 33.4114C4.83608 34.5815 6.16554 35.5143 7.64082 36.1527C9.1161 36.7911 10.7062 37.1216 12.3136 37.1241H44.3761C46.9449 37.1271 49.4187 36.1535 51.2965 34.4007C53.1743 32.648 54.3157 30.247 54.4895 27.6841C54.6633 25.1212 53.8565 22.5881 52.2324 20.5979C50.6084 18.6077 48.2886 17.3091 45.743 16.9653ZM29.1886 6.74913C32.5095 6.74844 35.7141 7.97179 38.1897 10.1853C40.6653 12.3987 42.2382 15.447 42.6076 18.7473C42.6535 19.1619 42.8514 19.5449 43.163 19.8222C43.4746 20.0996 43.878 20.2517 44.2951 20.2491H44.3761C46.1664 20.2491 47.8832 20.9603 49.1491 22.2262C50.415 23.492 51.1261 25.2089 51.1261 26.9991C51.1261 28.7893 50.415 30.5062 49.1491 31.7721C47.8832 33.038 46.1664 33.7491 44.3761 33.7491H12.3136C11.1191 33.7485 9.93838 33.4943 8.84947 33.0033C7.76055 32.5123 6.78831 31.7957 5.99704 30.9008C5.20578 30.006 4.61353 28.9533 4.25949 27.8125C3.90544 26.6717 3.79765 25.4687 3.94326 24.2831C4.08888 23.0975 4.48456 21.9563 5.10415 20.9351C5.72374 19.9138 6.55311 19.0358 7.5374 18.359C8.52168 17.6823 9.63845 17.2222 10.8138 17.0093C11.9892 16.7963 13.1964 16.8354 14.3555 17.1239C14.7691 17.227 15.2063 17.1699 15.5794 16.9639C15.9526 16.7579 16.2339 16.4184 16.367 16.0135C17.259 13.3175 18.978 10.9711 21.2797 9.30799C23.5815 7.64483 26.3489 6.74946 29.1886 6.74913Z" fill="white"/>
</g>
<defs>
<clipPath id="clip0_2028_9975">
<rect width="54" height="54" fill="white" transform="translate(0.5)"/>
</clipPath>
</defs>
</svg>
