<svg width="50" height="51" viewBox="0 0 50 51" fill="none" xmlns="http://www.w3.org/2000/svg">
<path d="M24.9987 0.865234C25.9479 0.865234 26.7174 1.63474 26.7174 2.58398V4.87565C26.7174 5.82489 25.9479 6.5944 24.9987 6.5944C24.0495 6.5944 23.2799 5.82489 23.2799 4.87565V2.58398C23.2799 1.63474 24.0495 0.865234 24.9987 0.865234Z" fill="white"/>
<path fill-rule="evenodd" clip-rule="evenodd" d="M11.8216 25.5006C11.8216 18.2231 17.7212 12.3236 24.9987 12.3236C32.2762 12.3236 38.1758 18.2231 38.1758 25.5006C38.1758 32.7782 32.2762 38.6777 24.9987 38.6777C17.7212 38.6777 11.8216 32.7782 11.8216 25.5006ZM24.9987 15.7611C19.6197 15.7611 15.2591 20.1216 15.2591 25.5006C15.2591 30.8797 19.6197 35.2402 24.9987 35.2402C30.3777 35.2402 34.7383 30.8797 34.7383 25.5006C34.7383 20.1216 30.3777 15.7611 24.9987 15.7611Z" fill="white"/>
<path d="M10.0095 8.08083C9.33833 7.40962 8.25007 7.40962 7.57886 8.08083C6.90765 8.75205 6.90765 9.8403 7.57886 10.5115L9.19931 12.132C9.87053 12.8032 10.9588 12.8032 11.63 12.132C12.3012 11.4608 12.3012 10.3725 11.63 9.70129L10.0095 8.08083Z" fill="white"/>
<path d="M49.6341 25.5006C49.6341 26.4499 48.8646 27.2194 47.9154 27.2194H45.6237C44.6745 27.2194 43.9049 26.4499 43.9049 25.5006C43.9049 24.5514 44.6745 23.7819 45.6237 23.7819H47.9154C48.8646 23.7819 49.6341 24.5514 49.6341 25.5006Z" fill="white"/>
<path d="M42.4185 10.5115C43.0897 9.84028 43.0897 8.75203 42.4185 8.08081C41.7473 7.4096 40.659 7.4096 39.9878 8.08081L38.3674 9.70127C37.6962 10.3725 37.6962 11.4607 38.3674 12.1319C39.0386 12.8032 40.1268 12.8032 40.7981 12.1319L42.4185 10.5115Z" fill="white"/>
<path d="M24.9987 44.4069C25.9479 44.4069 26.7174 45.1764 26.7174 46.1256V48.4173C26.7174 49.3666 25.9479 50.1361 24.9987 50.1361C24.0495 50.1361 23.2799 49.3666 23.2799 48.4173V46.1256C23.2799 45.1764 24.0495 44.4069 24.9987 44.4069Z" fill="white"/>
<path d="M40.7982 38.8694C40.127 38.1982 39.0387 38.1982 38.3675 38.8694C37.6963 39.5406 37.6963 40.6288 38.3675 41.3L39.988 42.9205C40.6592 43.5917 41.7475 43.5917 42.4187 42.9205C43.0899 42.2493 43.0899 41.161 42.4187 40.4898L40.7982 38.8694Z" fill="white"/>
<path d="M6.09245 25.5006C6.09245 26.4499 5.32294 27.2194 4.3737 27.2194H2.08203C1.13279 27.2194 0.363281 26.4499 0.363281 25.5006C0.363281 24.5514 1.13279 23.7819 2.08203 23.7819H4.3737C5.32294 23.7819 6.09245 24.5514 6.09245 25.5006Z" fill="white"/>
<path d="M11.6298 41.3C12.3011 40.6288 12.3011 39.5406 11.6298 38.8693C10.9586 38.1981 9.87037 38.1981 9.19916 38.8693L7.57871 40.4898C6.90749 41.161 6.90749 42.2493 7.57871 42.9205C8.24992 43.5917 9.33817 43.5917 10.0094 42.9205L11.6298 41.3Z" fill="white"/>
</svg>
